<?xml version="1.0" standalone="no"?>
<!DOCTYPE svg PUBLIC "-//W3C//DTD SVG 20010904//EN"
 "http://www.w3.org/TR/2001/REC-SVG-20010904/DTD/svg10.dtd">
<svg version="1.0" xmlns="http://www.w3.org/2000/svg"
 width="504.000000pt" height="504.000000pt" viewBox="0 0 504.000000 504.000000"
 preserveAspectRatio="xMidYMid meet">
<metadata>
Created by potrace 1.11, written by Peter Selinger 2001-2013
</metadata>
<g transform="translate(0.000000,504.000000) scale(0.100000,-0.100000)"
fill="#000000" stroke="none">
<path d="M640 5021 c-15 -28 -13 -31 20 -31 31 0 39 17 18 38 -17 17 -26 15
-38 -7z"/>
<path d="M1876 5024 c-10 -27 3 -30 27 -6 l21 22 -21 0 c-11 0 -24 -7 -27 -16z"/>
<path d="M2370 5031 c0 -10 44 -41 58 -41 6 0 12 11 14 25 5 23 2 25 -33 25
-22 0 -39 -4 -39 -9z"/>
<path d="M2777 5033 c-12 -11 -8 -38 8 -59 13 -16 16 -17 25 -4 17 26 12 70
-8 70 -10 0 -22 -3 -25 -7z"/>
<path d="M4930 5031 c0 -5 7 -12 16 -15 22 -9 24 -8 24 9 0 8 -9 15 -20 15
-11 0 -20 -4 -20 -9z"/>
<path d="M980 5005 c0 -8 5 -15 10 -15 6 0 10 7 10 15 0 8 -4 15 -10 15 -5 0
-10 -7 -10 -15z"/>
<path d="M710 5001 c0 -17 51 -33 82 -27 15 3 30 1 33 -4 7 -11 25 -4 25 10 0
8 -19 14 -97 25 -29 5 -43 3 -43 -4z"/>
<path d="M2617 4993 c-15 -14 -6 -51 13 -56 26 -7 32 5 20 37 -9 26 -21 32
-33 19z"/>
<path d="M3460 4975 c0 -8 5 -15 10 -15 6 0 10 7 10 15 0 8 -4 15 -10 15 -5 0
-10 -7 -10 -15z"/>
<path d="M1741 4899 c0 -31 -3 -72 -6 -90 -6 -38 -2 -30 26 59 12 35 18 66 15
69 -3 4 -6 1 -6 -5 0 -19 -18 -14 -23 6 -3 9 -5 -8 -6 -39z"/>
<path d="M975 4896 c-16 -11 -15 -14 9 -29 24 -16 26 -16 36 3 14 26 -18 46
-45 26z"/>
<path d="M3020 4900 c0 -5 5 -10 11 -10 5 0 7 5 4 10 -3 6 -8 10 -11 10 -2 0
-4 -4 -4 -10z"/>
<path d="M3460 4900 c0 -12 40 -34 48 -26 3 4 -3 13 -14 21 -22 17 -34 19 -34
5z"/>
<path d="M4764 4855 c9 -13 16 -30 16 -36 0 -7 11 -27 25 -45 14 -18 25 -42
25 -53 0 -11 5 -23 10 -26 6 -3 10 -14 10 -24 0 -10 14 -29 32 -42 17 -13 43
-33 57 -44 18 -14 38 -19 64 -17 31 3 37 7 37 26 0 17 -10 28 -39 41 -22 9
-58 34 -80 55 -33 31 -41 45 -41 74 0 20 -7 41 -16 48 -8 7 -29 25 -45 41 -16
15 -39 27 -50 27 -20 0 -21 -1 -5 -25z"/>
<path d="M3136 4843 c-6 -14 -5 -15 5 -6 7 7 10 15 7 18 -3 3 -9 -2 -12 -12z"/>
<path d="M4465 4831 c-3 -5 -1 -12 5 -16 5 -3 10 1 10 9 0 18 -6 21 -15 7z"/>
<path d="M3380 4796 c0 -18 27 -39 40 -31 7 4 7 12 0 26 -12 22 -40 26 -40 5z"/>
<path d="M1162 4778 c2 -6 16 -21 31 -32 20 -15 30 -17 38 -9 9 9 3 17 -22 32
-39 24 -52 26 -47 9z"/>
<path d="M3097 4756 c-12 -13 -41 -62 -65 -107 -24 -46 -57 -106 -73 -134 -16
-27 -34 -59 -39 -70 -6 -11 -21 -38 -35 -60 -13 -22 -22 -46 -20 -53 3 -7 1
-10 -5 -7 -10 6 -35 -33 -26 -43 3 -3 6 0 6 7 0 7 4 10 8 7 17 -10 28 7 104
154 17 33 28 47 28 35 0 -11 12 5 28 37 27 57 60 81 47 36 -6 -22 -6 -23 10
-3 14 18 14 20 -10 32 -27 15 -32 28 -13 39 8 5 9 1 5 -12 -6 -14 -2 -13 13 6
l21 25 -5 -25 c-3 -14 3 -5 14 19 21 45 21 70 0 32 -6 -12 -17 -21 -25 -21
-19 0 -19 14 0 30 8 7 15 19 15 26 0 8 6 13 13 12 6 -2 11 5 11 15 -1 9 2 17
6 17 4 0 10 7 14 15 8 22 -2 18 -27 -9z"/>
<path d="M1720 4761 c0 -6 4 -13 10 -16 6 -3 7 1 4 9 -7 18 -14 21 -14 7z"/>
<path d="M5004 4754 c3 -9 6 -20 6 -25 0 -5 7 -9 15 -9 8 0 15 4 15 9 0 21
-13 41 -27 41 -10 0 -13 -6 -9 -16z"/>
<path d="M710 4754 c0 -3 7 -12 15 -21 20 -19 32 -9 15 12 -12 15 -30 20 -30
9z"/>
<path d="M2524 4745 c-5 -12 -1 -22 12 -32 24 -18 30 -1 10 28 -14 21 -16 21
-22 4z"/>
<path d="M593 4733 c-24 -9 -13 -23 12 -17 19 5 25 2 25 -10 0 -9 8 -20 18
-23 9 -4 21 -12 25 -20 4 -7 17 -13 28 -13 21 0 68 -46 69 -67 0 -7 6 -13 14
-13 8 0 21 -3 30 -6 21 -8 21 14 -1 39 -17 18 -17 19 2 33 26 19 8 50 -26 46
-110 -14 -109 -14 -115 4 -16 44 -46 62 -81 47z"/>
<path d="M4466 4719 c-16 -15 -17 -21 -6 -34 7 -8 20 -15 30 -15 12 0 20 -11
24 -35 4 -19 11 -37 16 -40 16 -10 12 59 -5 92 -23 46 -37 54 -59 32z"/>
<path d="M2283 4715 c-7 -20 24 -55 49 -55 22 0 22 4 1 41 -19 32 -40 38 -50
14z"/>
<path d="M2634 4715 c-9 -22 -1 -27 24 -18 22 8 22 8 2 21 -17 10 -21 10 -26
-3z"/>
<path d="M3385 4710 c-3 -5 1 -10 10 -10 9 0 13 5 10 10 -3 6 -8 10 -10 10 -2
0 -7 -4 -10 -10z"/>
<path d="M3460 4692 c0 -5 7 -17 15 -28 15 -19 20 -8 9 20 -6 17 -24 22 -24 8z"/>
<path d="M917 4676 c-22 -17 -22 -26 2 -26 23 0 33 11 23 27 -5 8 -12 8 -25
-1z"/>
<path d="M1633 4678 c-6 -7 -16 -30 -24 -51 -12 -33 -11 -41 3 -65 20 -33 58
-43 58 -15 0 11 6 25 12 31 10 10 10 17 0 32 -6 11 -12 26 -12 33 0 7 -6 21
-13 31 -11 15 -15 15 -24 4z"/>
<path d="M1435 4639 c-9 -26 0 -35 43 -43 l34 -6 -29 34 c-33 41 -40 43 -48
15z"/>
<path d="M903 4614 l-21 -24 34 0 c35 0 46 18 21 38 -9 8 -18 4 -34 -14z"/>
<path d="M1130 4619 c0 -11 4 -18 10 -14 5 3 7 12 3 20 -7 21 -13 19 -13 -6z"/>
<path d="M1010 4575 c0 -9 6 -12 15 -9 8 4 15 7 15 9 0 2 -7 5 -15 9 -9 3 -15
0 -15 -9z"/>
<path d="M4577 4573 c-25 -6 -17 -24 22 -45 35 -20 51 -17 51 11 0 34 -26 46
-73 34z"/>
<path d="M1084 4554 c3 -9 6 -18 6 -20 0 -2 7 -4 15 -4 8 0 15 9 15 20 0 14
-7 20 -21 20 -15 0 -19 -4 -15 -16z"/>
<path d="M3492 4549 c2 -7 10 -15 17 -17 8 -3 12 1 9 9 -2 7 -10 15 -17 17 -8
3 -12 -1 -9 -9z"/>
<path d="M946 4527 c-14 -10 -16 -16 -7 -22 15 -9 35 8 30 24 -3 8 -10 7 -23
-2z"/>
<path d="M2328 4533 c7 -3 16 -2 19 1 4 3 -2 6 -13 5 -11 0 -14 -3 -6 -6z"/>
<path d="M4515 4531 c-4 -8 1 -21 14 -34 16 -17 21 -18 21 -6 0 8 -6 23 -13
34 -11 13 -16 15 -22 6z"/>
<path d="M820 4497 c0 -16 8 -28 25 -35 23 -11 27 -9 34 11 9 23 4 29 -36 41
-20 6 -23 4 -23 -17z"/>
<path d="M3031 4513 c-1 -6 -4 -20 -7 -30 -5 -17 -5 -17 6 0 6 10 9 23 6 30
-3 9 -5 9 -5 0z"/>
<path d="M627 4483 c-10 -9 -9 -23 2 -23 5 0 11 7 15 15 5 15 -5 20 -17 8z"/>
<path d="M2415 4481 c-10 -17 15 -45 29 -31 7 7 5 15 -6 26 -11 11 -18 13 -23
5z"/>
<path d="M1706 4451 c-5 -8 16 -343 34 -546 13 -136 36 -278 75 -445 15 -63
33 -144 40 -180 7 -36 21 -94 30 -130 13 -50 15 -85 10 -150 -7 -97 -21 -160
-35 -160 -6 0 -10 -13 -10 -29 0 -29 -21 -57 -33 -44 -4 3 -7 -1 -7 -10 0 -9
4 -18 9 -21 14 -9 -3 -65 -48 -154 -30 -58 -47 -82 -57 -78 -15 6 -17 -1 -14
-51 2 -43 -8 -73 -25 -73 -21 0 -30 -22 -14 -34 8 -6 14 -24 15 -41 2 -104 9
-176 20 -229 17 -79 17 -87 -1 -80 -8 4 -15 15 -15 25 0 31 -24 113 -37 127
-7 7 -13 18 -13 24 0 16 -62 1 -82 -20 -16 -16 -16 -19 -1 -51 16 -32 16 -36
-5 -74 -21 -38 -21 -41 -4 -53 9 -7 27 -14 38 -14 36 0 96 -30 91 -44 -3 -8 0
-19 6 -25 8 -8 5 -11 -10 -11 -13 0 -50 -27 -93 -70 -39 -38 -75 -70 -81 -70
-17 0 -9 35 11 48 22 13 24 20 11 41 -7 10 -13 11 -30 1 -18 -9 -21 -17 -16
-39 5 -23 2 -29 -14 -34 -14 -3 -21 -13 -21 -29 0 -13 -12 -40 -26 -59 -25
-33 -26 -33 -20 -7 3 15 2 30 -4 33 -5 3 -10 0 -11 -7 0 -7 -5 1 -11 17 -6 17
-20 43 -31 58 -10 16 -16 31 -13 34 3 3 1 12 -5 20 -9 10 -8 13 2 13 10 1 8 5
-5 15 -22 16 -36 11 -36 -13 0 -9 -5 -24 -10 -32 -14 -22 -33 2 -32 41 1 38
-37 131 -52 126 -6 -2 -10 -17 -11 -33 0 -24 -4 -28 -22 -26 -29 4 -31 -23 -4
-38 27 -14 47 -76 30 -96 -6 -8 -14 -12 -17 -9 -3 3 -18 -7 -33 -21 -24 -23
-31 -25 -44 -14 -19 16 -19 30 0 30 8 0 15 7 15 15 0 10 10 15 29 15 36 0 51
17 19 22 -14 2 -24 12 -28 27 -8 34 -35 49 -60 33 -17 -10 -21 -10 -26 3 -3 8
-10 12 -15 9 -5 -3 -9 2 -9 10 0 10 -6 13 -15 10 -14 -6 -19 5 -16 34 1 6 -5
12 -14 12 -13 0 -15 -6 -10 -32 4 -18 14 -37 21 -41 15 -9 19 -37 6 -37 -4 0
-13 5 -19 11 -6 6 -21 16 -34 23 -30 15 -34 32 -9 39 12 3 20 13 20 26 0 12 5
21 11 21 6 0 9 10 7 23 -2 16 -11 23 -30 25 -27 3 -40 22 -15 22 7 0 12 14 13
32 1 19 10 38 23 49 11 9 21 20 21 24 0 8 -56 65 -64 65 -12 0 -5 -38 9 -50 8
-7 15 -17 15 -22 0 -17 -32 -42 -54 -43 -11 0 -21 -4 -22 -10 -2 -22 27 -75
41 -75 19 0 40 -49 26 -63 -5 -5 -18 -6 -30 -2 -15 5 -21 15 -21 37 0 21 -4
29 -13 25 -8 -3 -18 -2 -23 1 -13 9 -41 79 -49 119 -7 35 -29 36 -38 2 -3 -11
-14 -19 -25 -19 -29 0 -36 -29 -12 -55 17 -18 18 -25 8 -53 -7 -18 -22 -35
-33 -38 -11 -4 -41 -29 -68 -56 -26 -27 -47 -46 -47 -42 0 4 -7 1 -15 -6 -13
-11 -15 -8 -15 16 0 41 -13 57 -39 49 -14 -4 -21 -15 -21 -31 0 -13 -3 -24 -6
-24 -13 0 -59 66 -59 84 0 15 -6 21 -22 20 -13 0 -23 5 -23 13 0 10 7 12 20 8
11 -4 20 -2 20 4 0 15 27 14 33 -1 3 -7 3 5 1 26 -4 50 -35 86 -58 66 -9 -7
-16 -21 -16 -32 0 -15 -5 -18 -21 -13 -19 6 -21 4 -16 -14 6 -22 2 -22 -45 11
-34 24 -58 23 -58 -2 0 -15 -7 -20 -27 -20 -26 1 -27 1 -8 12 29 16 29 16 15
33 -7 9 -10 18 -7 22 4 3 2 12 -4 19 -16 20 20 65 48 61 19 -3 21 -1 12 14
-16 31 -51 50 -67 37 -10 -9 -16 -8 -23 3 -13 21 -11 26 11 32 11 3 20 1 20
-4 0 -4 7 -6 15 -3 21 9 19 25 -5 31 -11 3 -20 12 -20 19 0 8 -5 14 -11 14
-13 0 -33 20 -42 43 -7 20 -29 22 -57 5 -15 -10 -22 -10 -32 0 -11 11 -10 12
3 7 10 -4 20 -1 24 5 4 7 -2 14 -14 17 -29 7 -26 23 4 23 31 0 33 18 3 30 -18
7 -19 9 -5 9 23 1 22 22 -2 28 -10 2 -25 17 -32 31 -13 26 -14 24 -17 -36 -2
-42 2 -69 10 -79 10 -13 10 -17 1 -20 -9 -3 -13 -26 -13 -67 0 -58 2 -64 28
-77 15 -8 33 -20 40 -26 7 -7 22 -13 33 -13 10 0 19 -4 19 -9 0 -5 11 -12 25
-15 14 -4 25 -11 25 -18 0 -16 -31 -37 -55 -38 -21 0 -81 19 -102 33 -9 6 -13
2 -13 -12 0 -13 7 -21 16 -21 10 0 14 -6 11 -14 -3 -8 2 -16 14 -19 11 -3 19
-14 19 -26 0 -25 15 -28 28 -4 6 10 16 14 26 10 12 -5 20 1 28 18 14 32 41 33
36 3 -2 -13 -7 -21 -12 -18 -5 3 -13 -6 -17 -19 -7 -17 -15 -22 -30 -18 -32 8
-119 -86 -119 -129 0 -34 14 -52 26 -33 4 8 9 7 15 -2 8 -12 10 -12 18 -1 6
10 10 8 14 -8 3 -12 10 -19 16 -16 5 4 13 1 17 -5 3 -6 1 -15 -6 -19 -8 -5
-15 -25 -16 -46 -4 -45 -10 -52 -34 -36 -31 19 -42 15 -30 -8 14 -26 54 -42
86 -34 20 5 24 12 24 43 -1 97 0 111 5 111 3 0 26 -21 52 -47 45 -44 51 -47
104 -48 58 -2 119 -20 119 -36 0 -5 9 -9 20 -9 21 0 28 24 10 35 -18 11 -11
25 13 25 22 0 47 36 47 68 0 7 5 10 10 7 9 -6 10 -125 1 -125 -3 0 -13 7 -23
16 -16 16 -18 15 -25 -2 -4 -10 -2 -19 5 -22 7 -2 12 -16 12 -32 0 -24 4 -28
23 -26 13 1 28 5 34 9 6 4 13 -3 17 -18 4 -14 13 -25 20 -25 8 0 21 -11 29
-24 15 -23 15 -24 -19 -42 -35 -19 -36 -19 -49 1 -26 37 -47 54 -61 48 -16 -6
-19 -63 -4 -63 6 0 10 -7 10 -16 0 -27 -24 -9 -36 27 -7 19 -18 34 -25 34 -8
0 -16 3 -19 7 -3 3 -18 10 -34 14 l-29 7 8 -39 c14 -75 9 -140 -14 -163 -11
-11 -28 -21 -36 -21 -17 0 -20 21 -4 37 7 7 6 21 -5 48 -19 45 -20 50 -3 37
18 -14 58 3 51 23 -6 16 -34 21 -34 6 0 -4 -10 -6 -22 -4 -38 6 -52 -10 -40
-45 8 -22 7 -32 -1 -35 -6 -2 -8 -11 -4 -20 4 -10 6 -21 7 -25 0 -11 -44 -9
-52 3 -12 16 -9 25 7 25 20 0 19 30 -2 45 -15 11 -15 17 -5 40 15 33 8 61 -18
68 -27 7 -31 -2 -14 -28 11 -16 12 -35 7 -76 -7 -45 -12 -55 -30 -57 -16 -2
-26 5 -38 28 -9 18 -19 29 -23 26 -3 -4 0 -12 6 -18 7 -7 12 -25 12 -41 0 -20
6 -30 19 -34 11 -3 18 -13 17 -25 -2 -39 -25 -30 -48 18 l-22 48 -8 -39 c-5
-21 -13 -44 -18 -50 -5 -6 -7 -28 -5 -48 4 -28 1 -37 -10 -37 -13 0 -15 -77
-15 -620 l0 -620 1775 0 1774 0 -4 28 c-2 15 -6 35 -10 45 -6 14 -1 17 34 17
46 0 81 -29 81 -67 l0 -23 344 0 c339 0 345 0 351 21 8 23 40 22 40 -1 0 -13
46 -15 328 -18 l327 -2 0 440 c0 386 -2 439 -15 434 -8 -4 -15 -10 -15 -15 0
-5 -13 -9 -29 -9 -21 0 -39 10 -60 32 -31 34 -32 48 -2 48 10 0 24 7 32 16 12
15 34 15 71 -1 17 -7 18 25 17 545 0 463 -2 555 -14 567 -8 7 -18 14 -22 14
-10 0 -4 90 7 104 13 16 21 100 26 255 5 144 5 145 -21 172 -26 28 -31 48 -16
64 8 8 16 75 12 117 -2 26 -30 20 -37 -9 -5 -18 -1 -29 12 -38 17 -13 17 -14
-2 -24 -11 -6 -26 -29 -34 -51 -9 -28 -19 -41 -34 -43 -16 -2 -20 -9 -18 -28
2 -14 8 -29 13 -34 14 -15 11 -23 -11 -29 -11 -3 -20 -12 -20 -21 0 -11 -9
-16 -27 -16 -16 0 -34 -4 -42 -9 -17 -11 -5 -51 15 -51 8 0 17 -7 20 -15 4 -8
13 -15 21 -15 11 0 13 7 8 31 -7 29 -6 30 14 20 12 -7 21 -16 21 -22 0 -5 10
-23 22 -39 23 -31 46 -38 65 -19 8 8 13 5 18 -11 4 -12 2 -27 -4 -33 -8 -8
-11 -8 -11 0 0 7 -18 11 -49 10 -27 -1 -47 -6 -44 -10 3 -5 -3 -7 -13 -5 -10
2 -24 14 -31 28 -10 20 -13 21 -13 6 0 -15 -3 -16 -14 -7 -11 9 -15 8 -20 -5
-5 -13 -9 -14 -22 -3 -8 7 -22 26 -31 42 -12 23 -17 27 -24 16 -5 -8 -6 -26
-3 -41 8 -38 -5 -56 -20 -26 -16 32 -49 37 -44 7 4 -30 60 -49 89 -31 23 15
46 15 54 2 7 -12 -68 -90 -88 -90 -19 0 -47 32 -47 54 0 14 -5 17 -24 12 -22
-5 -26 -1 -42 39 -11 31 -22 44 -33 43 -11 -2 -19 9 -25 35 -5 20 -15 37 -23
37 -7 0 -13 6 -13 14 0 8 -9 18 -21 21 -15 5 -20 13 -17 30 4 19 1 22 -23 21
-15 -1 -42 -14 -59 -30 -36 -31 -40 -29 -73 34 -23 45 -47 64 -47 36 0 -8 -9
-20 -21 -27 -15 -8 -18 -14 -10 -22 6 -6 11 -22 11 -35 0 -17 9 -27 35 -38 23
-9 35 -21 35 -34 0 -25 -15 -33 -39 -21 -14 8 -22 7 -31 -5 -11 -13 -15 -12
-33 7 -19 20 -20 20 -30 3 -7 -13 -7 -19 1 -22 7 -2 12 -9 12 -15 0 -6 12 -23
27 -39 l26 -27 -27 -11 c-16 -6 -30 -19 -33 -30 -4 -16 -9 -18 -19 -10 -9 8
-19 8 -34 0 -18 -10 -22 -9 -27 9 -3 11 -11 17 -17 15 -24 -9 -39 24 -34 71 6
45 -7 72 -18 38 -3 -10 -15 -37 -27 -60 -17 -33 -18 -44 -9 -56 19 -22 -23
-89 -52 -85 -13 2 -22 12 -24 26 -5 30 -22 28 -22 -3 0 -17 -6 -25 -17 -25
-10 0 -24 -4 -32 -9 -12 -8 -10 -16 12 -45 15 -19 23 -37 18 -41 -6 -3 -6 -17
-1 -35 5 -17 6 -30 3 -30 -3 0 2 -9 12 -20 10 -11 28 -20 40 -20 11 0 26 -5
33 -12 9 -9 12 -9 12 2 0 10 5 9 19 -4 10 -9 18 -25 16 -34 -1 -9 0 -11 2 -4
7 18 23 15 23 -5 0 -15 2 -16 10 -3 8 12 10 11 10 -7 0 -13 -3 -23 -7 -23 -5
0 -17 -7 -27 -15 -19 -14 -19 -15 -1 -35 28 -31 52 -24 46 13 0 4 6 7 14 7 8
0 15 -7 15 -15 0 -8 5 -14 12 -12 25 5 19 -33 -6 -44 -33 -16 -72 0 -88 36 -7
15 -17 24 -25 21 -7 -3 -13 -1 -13 4 0 6 -4 10 -10 10 -14 0 -12 -34 2 -48 17
-17 -7 -33 -42 -30 -21 3 -25 9 -28 41 -3 36 -5 38 -28 33 -13 -4 -24 -2 -24
3 0 5 -3 16 -6 24 -4 11 2 17 18 19 22 3 22 4 -7 18 -17 9 -30 24 -31 35 -2
38 -4 45 -13 45 -5 0 -14 -13 -21 -29 -10 -26 -9 -32 9 -50 31 -31 25 -46 -8
-22 -31 23 -51 27 -51 11 0 -17 44 -50 67 -50 14 0 22 -4 19 -9 -3 -4 6 -23
19 -41 30 -41 30 -43 6 -35 -13 4 -23 0 -30 -12 -10 -17 -10 -17 -11 0 0 21
-18 23 -26 2 -9 -23 -49 -19 -51 4 -1 14 7 22 28 26 28 6 48 29 36 41 -3 3
-19 -1 -35 -10 -28 -14 -31 -14 -47 4 -23 25 -36 25 -63 -1 -26 -24 -44 -17
-36 15 3 15 -2 28 -15 40 -29 26 -26 36 9 36 17 0 30 5 30 10 0 6 5 10 10 10
6 0 10 -6 10 -14 0 -8 5 -18 10 -21 12 -7 3 43 -10 60 -5 6 -10 21 -12 34 -4
31 -24 38 -31 11 -7 -28 -34 -36 -57 -15 -17 15 -23 16 -52 5 -18 -8 -41 -19
-52 -26 -13 -9 -50 -11 -132 -7 -63 3 -114 1 -114 -3 1 -28 20 -37 64 -31 27
4 48 2 52 -4 3 -6 17 -14 31 -20 42 -16 21 -34 -36 -31 -28 1 -51 0 -51 -4 0
-3 8 -18 18 -32 10 -15 29 -53 42 -86 14 -36 31 -61 42 -64 20 -5 25 -22 7
-22 -7 0 -9 -9 -5 -23 33 -113 24 -307 -15 -307 -13 0 -17 -5 -12 -17 5 -13 2
-15 -15 -11 -17 5 -22 2 -22 -14 0 -10 5 -29 11 -40 17 -31 18 -148 2 -148 -7
0 -13 -9 -13 -20 0 -11 4 -20 10 -20 22 0 30 -38 15 -75 -13 -30 -20 -35 -38
-31 -12 3 -16 3 -9 0 19 -9 14 -22 -10 -30 -13 -4 -36 -17 -53 -29 -16 -12
-36 -20 -43 -18 -17 7 -5 23 18 23 22 0 34 26 15 34 -7 2 -19 -2 -26 -10 -7
-8 -18 -13 -26 -10 -10 4 -12 -1 -7 -19 5 -21 3 -25 -18 -25 -13 0 -32 -6 -43
-14 -25 -16 -87 -28 -142 -26 -26 0 -43 -4 -43 -10 0 -6 -7 -4 -16 5 -9 9 -23
14 -30 11 -8 -3 -14 -1 -14 4 0 6 -5 10 -11 10 -6 0 -9 -6 -6 -14 4 -10 -6 -7
-28 7 -19 12 -32 28 -30 34 3 10 0 10 -18 0 -12 -6 -25 -16 -29 -22 -5 -6 -11
-6 -16 2 -4 6 -20 15 -35 18 -15 4 -30 11 -33 16 -3 5 -17 9 -31 9 -18 0 -24
4 -19 15 7 20 -3 19 -26 -2 -15 -14 -21 -14 -27 -4 -5 7 -11 12 -15 12 -18 -3
-19 1 -1 8 12 5 23 4 28 -3 6 -8 10 -7 14 2 7 18 40 15 52 -5 9 -15 10 -12 11
16 0 19 -3 32 -6 28 -7 -6 -44 24 -44 36 0 5 10 5 23 1 l22 -7 -20 23 c-17 18
-21 20 -23 6 -7 -36 -43 -9 -46 34 -1 8 -8 15 -16 15 -8 0 -24 8 -35 18 -17
15 -18 19 -5 27 13 8 12 11 -5 24 -19 13 -19 15 -2 21 18 8 23 40 7 50 -5 3
-10 14 -10 24 0 10 -7 24 -15 31 -8 7 -15 19 -15 27 0 22 27 -1 47 -41 10 -19
18 -26 21 -18 2 8 -1 19 -7 25 -16 16 -14 30 4 23 8 -3 15 -3 15 0 0 2 -12 9
-26 14 -20 8 -24 14 -18 33 10 33 14 34 34 7 16 -20 20 -22 20 -7 0 26 54 23
73 -6 14 -19 18 -20 26 -7 6 8 11 26 12 40 2 23 2 23 6 3 5 -25 33 -53 33 -33
0 7 8 2 18 -10 13 -17 24 -21 40 -16 12 4 22 12 22 17 0 5 5 9 10 9 6 0 10 -7
10 -15 0 -8 7 -15 15 -15 8 0 15 5 15 10 0 6 -7 13 -15 16 -8 4 -15 12 -15 20
0 21 -18 17 -25 -7 -4 -11 -9 -18 -12 -16 -2 3 1 15 7 27 10 19 9 21 -7 20
-35 -4 -45 0 -39 15 4 11 -1 15 -19 15 -16 0 -25 6 -25 15 0 17 35 21 45 5 9
-15 25 -12 25 4 0 16 33 27 50 16 9 -6 4 -13 -18 -24 -38 -20 -54 -41 -23 -31
13 4 27 1 37 -9 14 -15 34 -21 34 -12 0 3 -7 12 -15 20 -12 12 -13 20 -6 34
15 29 -33 72 -75 67 -25 -4 -33 0 -42 20 -13 28 -1 33 18 10 7 -8 18 -15 24
-15 6 0 3 7 -6 14 -10 7 -18 17 -18 21 0 4 7 2 15 -5 8 -6 18 -9 24 -6 5 3 12
-1 15 -10 3 -9 12 -14 19 -11 6 2 25 -5 40 -16 16 -10 31 -16 35 -12 8 8 -35
45 -53 45 -7 0 -16 7 -19 16 -4 12 -2 15 9 10 27 -10 16 3 -16 20 l-31 16 27
14 c34 17 57 18 74 2 11 -11 11 -9 2 10 -6 12 -16 22 -21 22 -6 0 -10 5 -10
11 0 7 7 8 18 4 35 -14 72 -17 72 -7 0 6 -12 15 -27 20 -16 6 -23 11 -16 11 6
1 10 10 8 20 -2 13 1 18 9 15 12 -4 19 8 31 56 4 16 68 110 75 110 8 0 20 37
26 83 3 25 2 26 -16 17 -15 -8 -18 -17 -14 -43 5 -31 5 -32 -9 -8 l-14 24 -17
-24 c-9 -13 -16 -29 -16 -35 0 -6 -7 -18 -17 -25 -13 -12 -17 -12 -21 -1 -3
10 -8 7 -19 -7 -13 -20 -40 -31 -29 -12 8 12 -20 22 -41 14 -13 -5 -12 -8 8
-15 21 -8 19 -11 -38 -38 -34 -16 -64 -34 -68 -40 -3 -5 -15 -10 -26 -10 -12
0 -27 -12 -37 -30 -18 -32 -56 -41 -66 -15 -7 18 -42 20 -49 3 -3 -7 -6 -3 -6
10 -1 18 -5 22 -20 17 -22 -7 -36 9 -25 27 10 16 12 78 3 72 -4 -2 -9 1 -11 8
-5 13 -48 19 -48 6 0 -4 -9 -8 -20 -8 -11 0 -20 -4 -20 -10 0 -5 -7 -10 -15
-10 -8 0 -15 4 -15 10 0 5 -16 7 -35 5 -34 -5 -49 8 -22 18 7 4 6 6 -4 6 -20
1 -45 29 -35 38 4 4 11 1 16 -6 4 -8 15 -11 24 -8 20 8 21 27 1 27 -8 0 -15 5
-15 11 0 8 -4 8 -15 -1 -17 -14 -35 -5 -35 18 0 9 -5 24 -11 32 -8 12 -9 10
-4 -9 5 -15 3 -21 -3 -17 -6 3 -12 0 -15 -6 -8 -22 -27 42 -21 68 5 19 3 23
-10 18 -10 -4 -16 -1 -16 9 0 8 5 17 11 19 7 2 7 12 0 31 -6 15 -8 34 -5 42 4
8 2 15 -3 15 -6 0 -10 15 -11 32 l-1 33 17 -23 c10 -13 21 -20 25 -16 7 7 -22
66 -35 72 -5 2 -8 12 -8 23 0 10 -7 19 -15 19 -17 0 -20 -16 -5 -25 6 -3 10
-16 10 -28 0 -21 -1 -21 -13 3 -8 14 -19 24 -25 22 -15 -3 -16 15 0 20 6 2 -4
12 -23 21 -19 9 -26 17 -17 17 9 0 19 6 21 13 4 7 6 6 6 -4 1 -9 8 -19 16 -23
18 -7 16 24 -4 48 -16 19 -51 87 -51 99 0 4 -9 17 -20 29 -15 16 -17 25 -9 35
9 9 8 13 0 13 -7 0 -10 4 -7 9 3 5 0 14 -7 20 -11 8 -13 2 -12 -32 1 -24 7
-52 14 -64 15 -29 14 -37 -3 -21 -7 8 -19 38 -27 68 -7 30 -21 63 -30 73 -27
29 -40 131 -22 161 8 12 10 21 17 72 3 17 11 46 20 65 19 45 21 12 2 -58 -20
-76 -10 -212 17 -235 11 -10 24 -18 29 -18 5 0 14 -11 20 -25 8 -17 14 -22 19
-14 4 8 12 -3 19 -28 7 -23 18 -40 27 -40 9 0 13 7 10 19 -3 10 -1 21 4 24 5
3 9 10 9 16 0 6 -9 3 -19 -6 -19 -17 -20 -17 -17 24 2 26 0 37 -5 28 -6 -8 -9
0 -9 25 0 31 -3 37 -21 37 -17 0 -19 -4 -13 -22 6 -20 5 -21 -9 -10 -9 7 -15
27 -15 43 1 16 -6 35 -14 42 -20 15 -36 143 -17 131 7 -4 10 -3 6 3 -4 6 -1
44 6 85 7 41 10 85 7 98 -3 14 2 40 14 62 10 22 20 58 21 81 1 23 5 53 9 67 4
17 4 19 -2 7 -7 -17 -9 -16 -20 8 -7 14 -12 32 -12 40 0 9 -6 12 -15 9 -15 -6
-20 14 -16 64 1 12 -3 21 -10 20 -6 -2 -14 3 -17 11 -3 9 0 11 8 6 10 -6 12
-2 8 16 -24 105 -39 168 -47 194 l-9 30 -1 -32 c-1 -45 -28 -44 -37 1 -3 19
-4 38 -1 43 2 4 0 19 -6 33 -5 14 -11 39 -12 55 -3 30 -21 200 -30 265 -2 19
-11 68 -19 108 -9 40 -16 95 -16 122 0 27 -5 50 -11 52 -5 2 -14 46 -19 98 -5
52 -10 96 -10 96 -1 7 -30 11 -34 5z m204 -931 c0 -5 -4 -10 -10 -10 -5 0 -10
5 -10 10 0 6 5 10 10 10 6 0 10 -4 10 -10z m15 -68 c-9 -9 -25 11 -25 31 1 21
1 21 15 -3 7 -14 12 -27 10 -28z m13 -40 c4 -25 -13 -30 -22 -6 -9 25 -7 36 7
32 6 -3 13 -14 15 -26z m18 -145 c-2 -7 -5 -4 -5 6 -1 9 -6 17 -12 17 -5 0 -7
5 -3 11 9 15 28 -16 20 -34z m43 -82 c1 -16 -1 -17 -9 -5 -5 8 -9 29 -9 45 1
29 1 29 9 5 4 -14 8 -34 9 -45z m-21 -90 c0 -16 -2 -15 -8 5 -11 34 -11 60 0
35 5 -11 8 -29 8 -40z m12 -491 c0 -32 -6 -30 -18 5 -9 25 -8 29 4 24 8 -3 14
-16 14 -29z m3016 -59 c23 -25 18 -40 -9 -29 -8 3 -18 0 -22 -5 -10 -17 -25
-3 -25 23 0 43 22 47 56 11z m-1 -75 c-3 -5 -12 -10 -18 -10 -7 0 -6 4 3 10
19 12 23 12 15 0z m-565 -15 c0 -8 -6 -15 -14 -15 -18 0 -29 -17 -21 -30 5 -8
11 -8 20 0 9 8 16 2 29 -24 9 -19 21 -36 27 -38 5 -2 10 -12 9 -23 -3 -98 1
-130 19 -149 16 -17 18 -28 12 -56 l-8 -35 -12 28 c-6 16 -11 33 -11 38 0 5
-4 9 -10 9 -5 0 -10 -9 -10 -21 0 -16 -4 -19 -21 -14 -14 5 -19 3 -15 -3 4 -6
-1 -15 -10 -20 -10 -6 -15 -17 -12 -28 6 -23 -36 -61 -48 -43 -3 6 -1 15 6 19
14 8 5 30 -11 30 -14 0 -48 -41 -49 -57 0 -7 9 -17 20 -23 11 -6 20 -17 20
-26 0 -13 -3 -13 -29 1 -20 10 -32 11 -36 4 -5 -7 -11 -7 -20 1 -10 8 -15 8
-20 0 -8 -13 25 -41 38 -33 11 7 37 -16 37 -33 0 -21 -19 -17 -39 8 l-18 22
-28 -23 c-16 -12 -35 -31 -42 -41 -22 -31 -36 -24 -31 15 2 19 1 36 -3 37 -4
2 -5 15 -2 30 4 23 8 26 24 17 35 -18 52 7 24 35 -13 12 -20 13 -35 4 -29 -18
-50 6 -50 58 0 23 4 45 9 48 5 3 7 15 4 25 -3 12 2 23 15 30 22 12 33 6 26
-14 -5 -13 45 -47 63 -44 35 6 44 -2 38 -31 -8 -35 0 -51 20 -43 22 8 21 83
-1 83 -13 0 -14 9 -9 54 6 48 5 54 -14 59 -48 12 -5 56 64 64 27 3 28 2 13
-10 -22 -18 -23 -55 -2 -78 9 -10 18 -36 21 -58 6 -44 26 -70 38 -51 4 6 -1
20 -10 30 -20 22 -12 40 15 40 17 0 40 26 40 44 0 10 -24 6 -51 -8 l-27 -14 0
75 c0 51 3 73 12 70 6 -2 10 -14 8 -27 -2 -19 0 -21 13 -10 8 7 15 18 15 26 0
7 7 17 16 22 9 5 14 14 11 19 -11 17 -52 21 -66 6 -16 -18 -31 -7 -31 23 0 16
6 24 18 24 10 0 25 9 35 20 20 24 37 26 37 5z m-2396 -117 c-3 -4 -9 -8 -15
-8 -5 0 -9 4 -9 8 0 5 7 9 15 9 8 0 12 -4 9 -9z m-1924 -15 c0 -5 -4 -13 -8
-20 -6 -9 -11 -7 -20 7 -11 17 -10 20 8 20 11 0 20 -3 20 -7z m4763 -47 c15
-12 24 -45 26 -103 1 -6 9 -9 19 -7 14 4 17 -1 16 -33 -1 -42 -27 -54 -32 -15
-2 12 -12 28 -21 34 -11 7 -16 19 -13 30 3 13 -2 21 -16 25 -24 6 -38 49 -21
69 14 17 19 17 42 0z m-263 -26 c6 -12 8 -29 5 -40 -5 -17 -9 -18 -28 -7 -49
27 -56 67 -11 67 13 0 28 -9 34 -20z m136 -99 c-10 -15 -42 -14 -76 4 -39 20
-38 32 3 43 27 8 36 6 56 -13 13 -13 20 -28 17 -34z m-656 -7 c0 -3 -9 -14
-20 -26 -35 -38 -55 3 -34 71 3 10 11 6 29 -13 14 -15 25 -29 25 -32z m-3940
42 c0 -3 -4 -8 -10 -11 -5 -3 -10 -1 -10 4 0 6 5 11 10 11 6 0 10 -2 10 -4z
m4086 -22 c-4 -9 -9 -15 -11 -12 -3 3 -3 13 1 22 4 9 9 15 11 12 3 -3 3 -13
-1 -22z m564 -65 c0 -5 -7 -9 -15 -9 -8 0 -15 7 -15 15 0 9 6 12 15 9 8 -4 15
-10 15 -15z m-2855 -43 c0 -14 7 -21 19 -21 11 0 21 -7 23 -15 4 -13 3 -13 -6
0 -5 8 -13 11 -17 8 -12 -12 -46 12 -40 28 3 9 1 12 -4 9 -6 -4 -10 5 -10 20
0 25 1 26 18 9 9 -10 17 -27 17 -38z m2810 -7 c-8 -11 -16 -11 -34 0 -22 14
-4 33 20 21 11 -6 17 -15 14 -21z m-778 -23 c-2 -5 -8 -11 -14 -13 -12 -4 -25
36 -16 50 7 12 35 -23 30 -37z m583 34 c0 -5 -7 -7 -15 -4 -8 4 -15 8 -15 10
0 2 7 4 15 4 8 0 15 -4 15 -10z m50 -25 c13 -14 25 -32 26 -41 1 -9 11 -22 21
-30 17 -14 16 -14 -7 -12 -14 2 -24 7 -22 11 1 4 -4 15 -13 23 -8 9 -15 22
-15 30 0 8 -7 14 -15 14 -8 0 -15 7 -15 15 0 22 13 18 40 -10z m-3020 -20 c0
-15 -6 -25 -14 -25 -22 0 -30 19 -16 35 18 22 30 18 30 -10z m3390 15 c0 -5
-5 -10 -11 -10 -5 0 -7 5 -4 10 3 6 8 10 11 10 2 0 4 -4 4 -10z m-4220 -20 c0
-5 -7 -10 -15 -10 -8 0 -15 5 -15 10 0 6 7 10 15 10 8 0 15 -4 15 -10z m3775
0 c3 -5 1 -10 -4 -10 -6 0 -11 5 -11 10 0 6 2 10 4 10 3 0 8 -4 11 -10z m175
0 c0 -5 -4 -10 -10 -10 -5 0 -10 5 -10 10 0 6 5 10 10 10 6 0 10 -4 10 -10z
m-2596 -26 c8 -3 20 -21 26 -40 7 -20 16 -31 23 -27 6 4 8 0 4 -10 -4 -10 -2
-28 3 -42 6 -16 6 -25 0 -25 -6 0 -10 -7 -10 -17 0 -15 -1 -15 -18 0 -10 10
-24 17 -31 17 -8 0 -12 17 -11 53 1 28 -1 62 -5 75 -8 23 -6 25 19 16z m2461
-23 c-9 -16 -25 -3 -18 15 4 10 9 12 15 6 6 -6 7 -15 3 -21z m255 9 c0 -5 -7
-10 -16 -10 -8 0 -12 5 -9 10 3 6 10 10 16 10 5 0 9 -4 9 -10z m-4000 -53 c0
-37 15 -58 36 -50 8 3 17 -3 21 -13 11 -28 40 -57 51 -50 6 3 13 -1 16 -10 4
-10 14 -14 26 -11 17 4 20 0 20 -29 0 -28 -4 -34 -21 -34 -11 0 -29 -5 -40
-11 -15 -8 -24 -7 -35 2 -13 10 -13 8 -5 -15 9 -21 8 -26 -4 -26 -8 0 -15 6
-15 13 0 6 -5 4 -11 -5 -14 -24 -84 -26 -75 -2 3 9 6 20 6 25 0 5 9 9 20 9 11
0 20 5 20 10 0 6 -9 10 -20 10 -26 0 -25 8 5 32 30 24 31 38 5 61 -12 10 -18
22 -15 27 3 5 1 26 -4 46 -10 38 -7 54 10 54 5 0 9 -15 9 -33z m3612 -1 c14
-21 8 -34 -19 -40 -17 -5 -29 -3 -34 6 -12 18 -11 30 1 23 6 -3 10 -2 10 4 0
5 -5 11 -12 13 -6 2 -8 10 -4 16 8 13 44 -1 58 -22z m91 20 c6 -15 -1 -26 -15
-26 -4 0 -8 9 -8 20 0 23 15 27 23 6z m228 -19 c-16 -16 -26 0 -10 19 9 11 15
12 17 4 2 -6 -1 -17 -7 -23z m-4557 7 c3 -8 2 -12 -4 -9 -6 3 -10 10 -10 16 0
14 7 11 14 -7z m1891 6 c3 -5 1 -10 -4 -10 -6 0 -11 5 -11 10 0 6 2 10 4 10 3
0 8 -4 11 -10z m1402 -5 c8 -9 23 -13 34 -10 14 5 22 -2 34 -31 11 -26 12 -40
5 -49 -6 -7 -10 -17 -9 -21 4 -24 -3 -34 -26 -34 -14 0 -25 -4 -25 -9 0 -5 -7
-12 -16 -15 -14 -5 -15 0 -9 40 6 40 4 46 -9 41 -9 -4 -16 -2 -16 3 0 6 -12
10 -26 10 -21 0 -24 3 -15 14 7 8 22 11 39 8 24 -5 26 -4 13 11 -7 10 -19 17
-27 17 -20 0 -28 21 -13 31 21 13 49 11 66 -6z m1433 -5 c0 -5 -7 -10 -15 -10
-8 0 -15 5 -15 10 0 6 7 10 15 10 8 0 15 -4 15 -10z m-580 -47 c-11 -17 -11
-17 -6 0 3 10 6 24 7 30 0 9 2 9 5 0 3 -7 0 -20 -6 -30z m320 12 c0 -18 -5
-25 -19 -25 -28 0 -36 19 -15 35 27 20 34 18 34 -10z m-3913 0 c19 -20 11 -43
-18 -47 -12 -2 -24 -9 -27 -17 -3 -9 1 -11 14 -7 15 4 19 0 20 -19 1 -15 -3
-25 -12 -25 -8 0 -14 7 -14 15 0 8 -5 15 -11 15 -7 0 -8 -7 -4 -17 4 -10 10
-26 12 -35 3 -10 9 -15 14 -12 16 9 39 -10 29 -26 -7 -11 -11 -11 -24 -1 -13
11 -17 11 -22 -3 -3 -9 -14 -15 -23 -14 -11 2 -17 -6 -19 -24 -4 -36 35 -42
70 -11 19 17 40 9 36 -15 -4 -28 11 -45 28 -31 8 6 14 8 15 3 1 -5 2 -17 3
-26 1 -18 20 -21 22 -3 3 23 17 55 24 55 4 0 10 -8 14 -17 3 -10 9 -24 12 -30
3 -8 -1 -13 -10 -13 -18 0 -20 -13 -6 -40 5 -10 7 -25 4 -34 -5 -12 -13 -9
-40 16 -19 17 -34 36 -34 43 0 9 -13 9 -49 2 -47 -10 -50 -9 -76 19 -14 16
-45 38 -68 49 -46 22 -61 60 -34 80 9 7 15 25 14 46 -2 24 2 34 13 34 10 0 14
-8 13 -25 -8 -93 -9 -110 -1 -110 4 0 8 5 8 11 0 7 7 17 15 23 12 9 13 21 6
66 -10 60 -6 74 15 66 9 -4 14 2 14 17 0 26 10 42 30 50 24 9 31 8 47 -8z
m-532 -5 c3 -5 -1 -10 -9 -10 -9 0 -16 5 -16 10 0 6 4 10 9 10 6 0 13 -4 16
-10z m2725 -10 c-10 -19 -30 -28 -30 -14 0 6 30 33 38 34 1 0 -2 -9 -8 -20z
m-2826 -15 c-4 -8 -8 -15 -10 -15 -2 0 -4 7 -4 15 0 8 4 15 10 15 5 0 7 -7 4
-15z m66 11 c0 -2 -7 -9 -15 -16 -13 -11 -14 -10 -9 4 5 14 24 23 24 12z
m2018 -6 c-1 -3 7 -20 20 -37 25 -35 16 -45 -12 -14 -19 21 -30 64 -15 59 6
-2 9 -6 7 -8z m-1164 -42 c17 -34 12 -53 -7 -28 -7 9 -20 14 -29 12 -12 -2
-18 3 -18 16 0 43 33 43 54 0z m3456 17 c-14 -7 -27 -11 -30 -9 -6 7 22 24 40
23 9 0 5 -6 -10 -14z m-1617 -14 c-3 -11 -12 -19 -21 -19 -10 0 -26 -3 -37 -7
-16 -6 -18 -5 -8 5 11 12 52 37 65 39 3 1 4 -8 1 -18z m-423 -11 c0 -5 -4 -10
-9 -10 -6 0 -13 5 -16 10 -3 6 1 10 9 10 9 0 16 -4 16 -10z m1756 -15 c9 -19
9 -27 -2 -36 -15 -13 -16 -12 -18 31 -1 36 5 38 20 5z m201 0 c-32 -28 -47
-32 -47 -10 0 17 27 34 55 34 18 0 17 -2 -8 -24z m543 15 c0 -5 -4 -10 -10
-10 -5 0 -10 5 -10 10 0 6 5 10 10 10 6 0 10 -4 10 -10z m-345 -12 c34 -15 31
-42 -8 -72 -40 -30 -45 -31 -68 -10 -14 13 -21 13 -41 3 -13 -6 -26 -17 -30
-23 -4 -6 -11 -7 -15 -2 -9 9 105 115 124 116 7 0 24 -5 38 -12z m244 -11 c7
-11 15 -43 18 -72 5 -47 3 -54 -17 -65 -18 -10 -24 -9 -34 5 -11 15 -16 16
-35 5 -13 -6 -23 -10 -24 -8 -15 29 -26 42 -33 40 -5 -2 -8 -9 -6 -16 2 -12
-85 -82 -93 -74 -2 2 5 30 16 62 10 33 19 64 19 70 0 17 115 73 149 73 17 0
33 -8 40 -20z m-3631 -17 c11 -17 10 -20 -7 -20 -22 0 -35 15 -26 30 9 15 19
12 33 -10z m2466 -9 c3 -5 -1 -24 -8 -43 -13 -31 -17 -33 -55 -31 -23 1 -39
-2 -37 -6 6 -9 -21 -51 -32 -51 -4 0 -12 16 -18 35 -10 33 -10 36 12 41 13 3
22 11 21 16 -1 6 12 11 29 12 21 1 30 -3 27 -11 -3 -7 2 -13 11 -13 10 0 19
11 23 30 5 30 17 38 27 21z m-1414 -11 c0 -5 -2 -10 -4 -10 -3 0 -8 5 -11 10
-3 6 -1 10 4 10 6 0 11 -4 11 -10z m515 0 c-11 -5 -27 -9 -35 -9 -13 -1 -13 0
0 9 8 5 24 9 35 9 l20 0 -20 -9z m1037 -36 c3 -2 5 -12 3 -22 -2 -9 -7 -38
-10 -63 -5 -41 -9 -46 -31 -46 -16 0 -23 4 -20 12 2 7 -6 23 -19 35 -54 51
-34 105 35 93 19 -3 38 -7 42 -9z m398 6 c0 -5 -7 -10 -15 -10 -8 0 -15 5 -15
10 0 6 7 10 15 10 8 0 15 -4 15 -10z m-2760 -10 c0 -5 -4 -10 -10 -10 -5 0
-10 5 -10 10 0 6 5 10 10 10 6 0 10 -4 10 -10z m3470 1 c0 -6 -4 -13 -10 -16
-5 -3 -10 1 -10 9 0 9 5 16 10 16 6 0 10 -4 10 -9z m-3725 -21 c1 -8 8 -30 17
-47 11 -22 14 -42 9 -60 l-7 -28 -15 33 c-10 22 -21 32 -36 32 -26 0 -29 10
-10 29 10 10 9 15 -5 25 -29 21 -22 38 15 34 20 -2 32 -8 32 -18z m3155 4 c0
-8 -4 -12 -10 -9 -5 3 -10 10 -10 16 0 5 5 9 10 9 6 0 10 -7 10 -16z m-3096
-28 c11 -18 13 -27 4 -32 -13 -8 -51 33 -42 47 9 15 21 10 38 -15z m2736 20
c0 -3 -4 -8 -10 -11 -5 -3 -10 -1 -10 4 0 6 5 11 10 11 6 0 10 -2 10 -4z
m-540 -27 c0 -5 -4 -9 -10 -9 -5 0 -10 7 -10 16 0 8 5 12 10 9 6 -3 10 -10 10
-16z m840 1 c12 -8 12 -10 -3 -16 -22 -8 -50 3 -42 16 8 12 25 13 45 0z m304
-5 c3 -9 0 -15 -9 -15 -16 0 -27 14 -18 24 10 10 21 7 27 -9z m-911 -64 l6
-25 -26 26 c-17 18 -24 32 -19 44 6 16 8 16 20 -2 7 -10 16 -30 19 -43z m480
26 c4 -10 -2 -13 -19 -9 -13 2 -21 8 -18 13 8 14 31 11 37 -4z m203 -51 c4
-16 2 -26 -5 -26 -6 0 -11 8 -11 18 0 10 -7 27 -15 38 -21 28 -18 41 5 17 10
-12 22 -33 26 -47z m-780 14 c1 -33 -12 -35 -30 -7 -8 13 -7 20 4 27 23 14 25
13 26 -20z m1249 10 c32 -20 49 -43 39 -53 -9 -9 -111 45 -111 59 0 20 34 17
72 -6z m-425 -11 c0 -14 -27 -10 -33 5 -4 10 0 12 14 9 10 -3 19 -9 19 -14z
m-3390 -25 c0 -8 -4 -12 -10 -9 -5 3 -10 10 -10 16 0 5 5 9 10 9 6 0 10 -7 10
-16z m3527 2 c-2 -6 -16 -11 -30 -10 -34 0 -34 -2 2 -32 16 -13 34 -37 39 -53
9 -25 8 -30 -9 -34 -13 -3 -17 -11 -13 -21 3 -9 4 -16 1 -16 -9 0 -57 50 -57
59 0 5 -9 11 -21 14 -26 7 -19 39 18 78 24 26 78 38 70 15z m-3447 -17 c0 -5
-7 -9 -15 -9 -15 0 -20 12 -9 23 8 8 24 -1 24 -14z m1620 11 c0 -5 -4 -10 -10
-10 -5 0 -10 5 -10 10 0 6 5 10 10 10 6 0 10 -4 10 -10z m891 -39 c-6 -4 -9
-15 -5 -24 8 -21 -3 -22 -22 -2 -14 13 -14 17 -1 30 8 8 17 11 21 8 3 -4 6 0
7 8 0 11 2 12 6 0 3 -7 0 -17 -6 -20z m1079 4 c14 -8 35 -14 47 -15 26 0 42
-52 23 -75 -31 -37 -123 27 -113 79 6 30 9 30 43 11z m-4106 -16 c8 -12 19
-18 25 -14 6 3 11 0 11 -8 0 -8 6 -20 14 -26 19 -16 27 -75 13 -111 -6 -16
-14 -30 -18 -30 -18 0 -55 27 -51 38 2 6 -3 15 -12 18 -9 3 -16 14 -16 23 0
30 -28 94 -46 109 -18 13 -18 14 3 8 12 -4 24 -2 28 4 10 16 33 12 49 -11z
m386 1 c0 -5 -4 -10 -10 -10 -5 0 -10 5 -10 10 0 6 5 10 10 10 6 0 10 -4 10
-10z m3874 -6 c19 -19 21 -34 4 -34 -23 0 -41 18 -35 34 8 20 12 20 31 0z
m-3808 -42 c-15 -15 -16 -15 -16 4 0 28 24 52 28 28 2 -9 -3 -24 -12 -32z
m3887 31 c4 -3 5 -8 2 -13 -6 -10 -45 9 -45 22 0 7 22 2 43 -9z m-4218 -3 c-3
-5 -15 -10 -25 -10 -10 0 -22 5 -25 10 -4 6 7 10 25 10 18 0 29 -4 25 -10z
m2935 -10 c0 -5 -4 -10 -10 -10 -5 0 -10 5 -10 10 0 6 5 10 10 10 6 0 10 -4
10 -10z m-994 -15 c14 -13 13 -15 -5 -15 -12 0 -21 6 -21 15 0 8 3 15 6 15 3
0 12 -7 20 -15z m-1871 -5 c3 -5 1 -10 -4 -10 -6 0 -11 5 -11 10 0 6 2 10 4
10 3 0 8 -4 11 -10z m3098 -3 c30 -31 40 -50 47 -87 10 -53 -12 -60 -34 -12
-10 21 -24 47 -32 59 l-14 22 -47 -24 c-32 -18 -50 -22 -57 -15 -15 15 22 48
64 55 19 3 36 8 39 11 8 8 22 4 34 -9z m-3389 -22 c-3 -7 -12 -16 -20 -19 -10
-4 -13 2 -12 18 2 16 7 22 19 19 10 -3 15 -11 13 -18z m231 15 c3 -5 -1 -10
-9 -10 -9 0 -16 5 -16 10 0 6 4 10 9 10 6 0 13 -4 16 -10z m3399 -5 c-4 -8
-10 -15 -15 -15 -5 0 -9 7 -9 15 0 8 7 15 15 15 9 0 12 -6 9 -15z m-1494 -25
c0 -11 -4 -20 -9 -20 -5 0 -11 9 -14 20 -3 13 0 20 9 20 8 0 14 -9 14 -20z
m1043 0 c3 -11 1 -20 -4 -20 -5 0 -9 9 -9 20 0 11 2 20 4 20 2 0 6 -9 9 -20z
m-2781 -2 c20 -17 28 -42 18 -57 -13 -22 -50 9 -50 41 0 31 8 35 32 16z m-394
-19 c-10 -5 -18 -16 -18 -24 0 -9 -6 -12 -15 -9 -23 9 -18 32 8 37 38 7 43 7
25 -4z m3757 1 c-3 -5 -13 -10 -21 -10 -8 0 -12 5 -9 10 3 6 13 10 21 10 8 0
12 -4 9 -10z m-3415 -10 c0 -5 -4 -10 -10 -10 -5 0 -10 5 -10 10 0 6 5 10 10
10 6 0 10 -4 10 -10z m280 6 c0 -3 -4 -8 -10 -11 -5 -3 -10 -1 -10 4 0 6 5 11
10 11 6 0 10 -2 10 -4z m2500 -16 c0 -5 -4 -10 -10 -10 -5 0 -10 5 -10 10 0 6
5 10 10 10 6 0 10 -4 10 -10z m-3370 -30 c0 -16 -21 -22 -35 -10 -21 17 -8 42
16 29 10 -5 19 -14 19 -19z m130 15 c0 -9 -6 -12 -15 -9 -8 4 -12 10 -9 15 8
14 24 10 24 -6z m690 -9 c0 -26 -44 -63 -55 -46 -3 6 1 10 9 10 10 0 13 6 10
15 -9 21 3 45 21 45 9 0 15 -9 15 -24z m2637 -2 c-9 -9 -28 6 -21 18 4 6 10 6
17 -1 6 -6 8 -13 4 -17z m-196 -22 c-7 -2 -19 -1 -29 3 -14 5 -14 7 -2 15 9 5
20 4 28 -3 10 -8 11 -12 3 -15z m884 18 c3 -5 1 -10 -4 -10 -6 0 -11 5 -11 10
0 6 2 10 4 10 3 0 8 -4 11 -10z m75 -5 c17 -20 10 -26 -42 -31 -42 -5 -42 -5
-18 10 14 8 19 15 12 16 -20 0 -3 20 17 20 10 0 24 -7 31 -15z m-4319 -45 c5
0 9 -6 9 -13 0 -8 -17 -13 -50 -13 -40 0 -50 2 -45 14 3 7 5 18 5 23 0 5 11 9
25 9 15 0 29 7 33 18 6 13 8 11 10 -10 2 -16 8 -28 13 -28z m3506 34 c-3 -3
-12 -4 -19 -1 -8 3 -5 6 6 6 11 1 17 -2 13 -5z m1153 -37 c0 -12 5 -17 14 -14
15 6 56 -32 56 -51 0 -15 -43 -26 -69 -17 -13 4 -21 15 -21 29 0 16 -12 29
-41 45 -42 24 -42 37 1 43 32 5 60 -12 60 -35z m-4550 19 c0 -3 -4 -8 -10 -11
-5 -3 -10 -1 -10 4 0 6 5 11 10 11 6 0 10 -2 10 -4z m3485 -16 c3 -5 1 -10 -4
-10 -6 0 -11 5 -11 10 0 6 2 10 4 10 3 0 8 -4 11 -10z m985 -42 c42 -24 68
-59 29 -37 -23 12 -54 5 -44 -11 7 -12 -5 -13 -21 -2 -17 11 -36 51 -29 62 9
15 22 12 65 -12z m-2280 -23 c11 -13 10 -14 -4 -9 -9 3 -16 10 -16 15 0 13 6
11 20 -6z m-2396 -9 c22 -11 24 -15 11 -20 -9 -3 -25 3 -37 14 -25 23 -12 26
26 6z m3730 -12 c8 -22 2 -27 -22 -20 -31 10 -36 36 -8 36 13 0 27 -7 30 -16z
m605 -20 c22 -9 47 -26 55 -39 19 -29 21 -69 4 -62 -7 2 -12 10 -10 16 1 6 -5
11 -13 11 -8 0 -15 3 -15 8 0 4 -20 16 -44 27 -48 21 -69 55 -35 55 10 0 36
-7 58 -16z m341 -14 c0 -5 -2 -10 -4 -10 -3 0 -8 5 -11 10 -3 6 -1 10 4 10 6
0 11 -4 11 -10z m-4562 -44 c3 -12 -1 -17 -10 -14 -7 3 -15 13 -16 22 -3 12 1
17 10 14 7 -3 15 -13 16 -22z m3692 -58 c0 -5 -9 -8 -21 -8 -16 0 -19 4 -14
20 3 11 2 20 -3 20 -13 0 -24 29 -16 42 6 10 54 -57 54 -74z m825 35 l18 -28
-21 19 c-12 11 -22 23 -22 28 0 14 7 9 25 -19z m-85 -4 c0 -5 -4 -9 -10 -9 -5
0 -10 7 -10 16 0 8 5 12 10 9 6 -3 10 -10 10 -16z m-835 -17 c-8 -8 -25 10
-19 20 4 6 9 5 15 -3 4 -7 6 -15 4 -17z m894 -8 c17 -37 8 -39 -13 -4 -9 17
-13 30 -8 30 5 0 14 -12 21 -26z m-411 -13 c22 -18 20 -31 -5 -31 -8 0 -11 5
-8 10 4 6 1 17 -5 25 -17 21 -7 19 18 -4z m612 -1 c11 -11 20 -28 20 -37 0
-10 3 -28 6 -40 6 -20 3 -23 -26 -23 -23 0 -33 5 -37 20 -3 11 -9 17 -14 14
-5 -3 -16 -1 -25 4 -10 6 -13 12 -6 16 5 3 8 14 5 24 -3 12 3 22 19 29 32 16
35 16 58 -7z m-648 -8 c-7 -2 -9 -8 -6 -14 4 -6 1 -9 -7 -6 -8 3 -15 12 -17
21 -2 12 2 14 20 9 12 -3 17 -7 10 -10z m431 -39 c20 -13 37 -28 37 -33 0 -11
-25 -3 -57 18 -13 8 -29 12 -37 9 -8 -3 -25 3 -38 13 l-23 19 40 -1 c23 -1 56
-11 78 -25z m-2063 -47 c10 -13 10 -16 -4 -16 -10 0 -14 5 -11 10 3 6 0 10 -8
10 -8 0 -17 7 -21 15 -4 12 -2 13 13 6 10 -6 23 -17 31 -25z m1333 2 c12 -6
34 -23 50 -38 25 -24 29 -35 32 -95 l4 -69 -25 29 c-17 19 -21 32 -14 39 16
16 12 34 -11 41 -14 5 -19 13 -16 26 7 25 0 24 -25 -3 -11 -13 -16 -17 -12 -9
3 7 0 18 -7 23 -11 7 -11 11 -1 15 6 2 12 9 12 14 0 6 -4 7 -10 4 -5 -3 -10 3
-10 14 0 24 4 25 33 9z m-330 -7 c16 -6 26 -20 29 -38 3 -15 9 -36 13 -45 6
-15 2 -18 -20 -18 -19 0 -26 4 -22 14 3 8 -1 13 -11 12 -8 0 -22 11 -31 26
-13 22 -13 29 -2 42 16 19 13 18 44 7z m987 -6 c5 -3 10 -15 10 -27 0 -17 -2
-18 -15 -8 -8 7 -15 18 -15 24 0 8 -14 11 -37 9 -30 -2 -34 -1 -18 6 20 9 56
8 75 -4z m-891 -4 c7 -5 10 -14 6 -20 -5 -9 -10 -9 -21 0 -26 22 -14 38 15 20z
m601 -46 c9 -11 10 -19 3 -26 -6 -6 -13 -1 -21 16 -13 28 -2 34 18 10z m-197
-9 c4 -10 1 -13 -9 -9 -15 6 -19 23 -5 23 5 0 11 -7 14 -14z m-1313 -56 c13
-8 13 -10 -2 -10 -9 0 -20 5 -23 10 -8 13 5 13 25 0z m945 0 c3 -5 -1 -10 -9
-10 -9 0 -16 5 -16 10 0 6 4 10 9 10 6 0 13 -4 16 -10z m-770 -60 c-3 -5 -18
-10 -33 -9 -24 0 -25 1 -7 9 28 12 47 12 40 0z m165 -7 c0 -10 2 -56 3 -103
l2 -85 63 -64 c65 -65 102 -121 81 -121 -6 0 1 -14 15 -31 26 -31 29 -49 17
-103 l-6 -29 -47 50 c-48 52 -138 117 -108 78 8 -11 38 -43 67 -71 58 -58 72
-92 50 -124 -12 -17 -17 -19 -28 -8 -43 41 -161 101 -187 96 -12 -3 2 -18 47
-50 71 -52 102 -88 77 -88 -8 0 -18 5 -21 10 -4 6 -15 8 -25 5 -16 -5 -29 -1
-69 22 -2 2 2 9 8 17 9 11 9 16 0 21 -6 4 -14 3 -18 -3 -9 -14 -91 -10 -91 5
0 6 5 15 10 18 6 4 8 10 5 15 -3 4 1 13 9 19 7 6 21 29 31 51 17 39 17 41 0
60 -10 11 -13 20 -8 20 6 0 14 -8 17 -17 5 -13 9 -14 19 -4 9 10 8 15 -7 27
-22 16 -70 19 -61 4 3 -5 -2 -10 -12 -10 -13 0 -25 14 -37 41 -10 22 -24 43
-32 46 -8 3 -14 16 -14 30 0 20 -3 23 -14 14 -10 -8 -21 -7 -45 5 -17 8 -29
20 -26 25 4 5 -1 9 -9 9 -23 0 -20 19 7 40 14 12 26 15 33 9 8 -6 14 -4 18 7
4 10 13 14 26 11 11 -3 20 0 20 6 0 7 11 17 25 24 20 9 25 8 25 -3 0 -8 5 -14
11 -14 7 0 9 10 5 25 -5 19 -3 23 9 19 8 -4 15 -1 15 5 0 13 40 61 51 61 5 0
6 -7 3 -15 -4 -8 -1 -15 5 -15 6 0 11 6 11 14 0 14 57 66 72 66 4 0 7 -8 8
-17z m830 7 c0 -5 -4 -10 -10 -10 -5 0 -10 5 -10 10 0 6 5 10 10 10 6 0 10 -4
10 -10z m960 -10 c0 -5 -4 -10 -10 -10 -5 0 -10 5 -10 10 0 6 5 10 10 10 6 0
10 -4 10 -10z m-877 -34 c4 -9 -3 -16 -19 -19 -24 -4 -50 14 -37 26 12 12 51
7 56 -7z m-459 -17 c39 -30 34 -79 -9 -91 -18 -4 -31 -4 -33 2 -2 6 -10 10
-17 10 -19 0 -33 72 -15 78 9 3 9 6 -1 13 -10 6 -4 9 17 9 17 0 43 -10 58 -21z
m689 4 c8 -7 -38 -33 -59 -33 -8 0 -14 5 -14 10 0 6 7 10 16 10 8 0 12 5 9 10
-7 11 38 14 48 3z m-369 -49 c10 -25 -1 -29 -14 -5 -6 12 -7 21 -1 21 5 0 12
-7 15 -16z m186 -5 c0 -5 -4 -9 -10 -9 -5 0 -10 7 -10 16 0 8 5 12 10 9 6 -3
10 -10 10 -16z m210 -9 c0 -13 -5 -18 -15 -14 -8 4 -15 12 -15 20 0 8 7 14 15
14 8 0 15 -9 15 -20z m-1017 -16 c38 -35 32 -58 -15 -62 -39 -3 -57 13 -73 66
-6 20 -3 22 27 22 22 0 43 -9 61 -26z m727 -15 c0 -17 -3 -18 -20 -9 -16 9
-18 13 -8 24 16 17 28 11 28 -15z m40 27 c0 -3 -4 -8 -10 -11 -5 -3 -10 -1
-10 4 0 6 5 11 10 11 6 0 10 -2 10 -4z m699 -80 c9 -10 8 -15 -4 -20 -21 -7
-45 3 -45 20 0 18 34 18 49 0z m-2013 -44 c-4 -3 -11 0 -16 8 -15 24 -11 33 6
15 9 -9 13 -19 10 -23z m736 -11 c3 -20 0 -32 -10 -36 -19 -7 -44 14 -38 32 3
7 0 13 -7 13 -7 1 -5 6 5 14 10 7 14 17 10 21 -4 4 3 3 14 -3 13 -7 23 -24 26
-41z m198 39 c0 -5 -7 -10 -16 -10 -8 0 -12 5 -9 10 3 6 10 10 16 10 5 0 9 -4
9 -10z m500 -51 c0 -11 -30 -12 -30 -1 0 4 -3 18 -6 32 l-6 25 21 -24 c12 -13
21 -27 21 -32z m268 29 c-4 -31 40 -70 64 -57 27 15 32 10 13 -11 -21 -24 -45
-26 -45 -5 0 11 -7 14 -24 9 -13 -3 -27 -1 -30 5 -4 5 -13 8 -21 4 -20 -7 -19
12 2 48 21 35 46 39 41 7z m-1621 -55 c-7 -7 -57 8 -57 18 0 4 14 3 31 -3 16
-6 28 -12 26 -15z m1823 3 c8 0 17 -3 20 -6 3 -3 17 -13 33 -23 27 -18 34 -41
18 -66 -7 -10 -17 -4 -46 28 -21 22 -46 41 -56 41 -13 0 -19 7 -19 21 0 16 4
19 18 14 9 -4 24 -8 32 -9z m-1120 -33 c0 -23 -4 -33 -9 -27 -9 8 -4 64 5 64
2 0 4 -17 4 -37z m-723 1 c-3 -3 -12 -4 -19 -1 -8 3 -5 6 6 6 11 1 17 -2 13
-5z m107 -28 c6 -22 -4 -38 -11 -18 -3 7 -22 12 -44 12 -21 0 -39 4 -39 9 0
13 19 18 57 18 23 -1 33 -6 37 -21z m-37 -22 c-3 -3 -12 -4 -19 -1 -8 3 -5 6
6 6 11 1 17 -2 13 -5z m844 -83 c16 -18 34 -29 40 -26 6 4 6 -1 -2 -12 -14
-23 -87 -30 -122 -12 -33 18 -58 52 -44 61 8 5 6 8 -5 8 -10 0 -18 5 -18 11 0
5 4 8 8 5 4 -2 14 -1 21 3 25 16 92 -6 122 -38z m643 -62 c21 -17 26 -29 26
-67 0 -90 -20 -119 -40 -58 -6 19 -21 38 -35 44 -14 7 -34 26 -45 44 l-20 33
23 12 c32 18 61 16 91 -8z m-913 -29 c11 -6 19 -21 19 -35 0 -13 5 -27 10 -30
6 -3 10 -15 10 -26 0 -10 -4 -19 -10 -19 -5 0 -10 5 -10 10 0 6 -6 10 -14 10
-15 0 -26 21 -26 51 0 11 -7 22 -15 25 -8 4 -15 10 -15 15 0 12 27 11 51 -1z
m406 -17 c-9 -9 -20 -13 -24 -9 -4 4 -1 11 7 16 25 16 35 11 17 -7z m725 -23
c22 -20 22 -20 2 -37 -54 -48 -65 -57 -63 -48 2 6 -2 20 -9 33 -11 18 -10 22
2 22 8 0 17 -6 19 -12 4 -10 8 -10 16 1 6 9 6 21 1 32 -8 14 -4 29 7 29 2 0
13 -9 25 -20z m-1537 -38 c-7 -8 -45 10 -40 19 4 5 14 3 25 -3 11 -7 17 -14
15 -16z m1451 -57 c-3 -9 -19 -15 -41 -15 -33 0 -35 1 -24 21 8 15 18 20 35
16 13 -2 24 1 25 7 0 6 3 6 6 -2 3 -7 2 -19 -1 -27z m-668 -13 c2 -14 -2 -22
-11 -22 -9 0 -17 -6 -20 -12 -2 -7 -8 -10 -12 -6 -10 9 17 69 30 65 5 -2 11
-13 13 -25z m762 -52 c0 -5 -4 -10 -10 -10 -5 0 -10 5 -10 10 0 6 5 10 10 10
6 0 10 -4 10 -10z"/>
<path d="M887 1774 c-8 -8 1 -24 14 -24 5 0 9 7 9 15 0 15 -12 20 -23 9z"/>
<path d="M920 1745 c0 -8 9 -15 20 -15 11 0 20 7 20 15 0 8 -9 15 -20 15 -11
0 -20 -7 -20 -15z"/>
<path d="M4790 1300 c0 -5 5 -10 10 -10 6 0 10 5 10 10 0 6 -4 10 -10 10 -5 0
-10 -4 -10 -10z"/>
<path d="M4820 1030 c0 -5 5 -10 10 -10 6 0 10 5 10 10 0 6 -4 10 -10 10 -5 0
-10 -4 -10 -10z"/>
<path d="M3105 710 c-3 -5 -1 -10 4 -10 6 0 11 5 11 10 0 6 -2 10 -4 10 -3 0
-8 -4 -11 -10z"/>
<path d="M2860 599 c0 -20 14 -39 29 -38 10 0 11 2 4 6 -26 10 -12 24 17 18
17 -4 30 -2 30 3 0 6 -18 12 -40 14 -22 2 -40 0 -40 -3z"/>
<path d="M2998 563 c7 -3 16 -2 19 1 4 3 -2 6 -13 5 -11 0 -14 -3 -6 -6z"/>
<path d="M2970 540 c0 -5 5 -10 10 -10 6 0 10 5 10 10 0 6 -4 10 -10 10 -5 0
-10 -4 -10 -10z"/>
<path d="M3060 513 c0 -5 7 -18 15 -29 12 -16 14 -16 15 -3 0 9 -7 22 -15 29
-8 7 -15 8 -15 3z"/>
<path d="M2925 490 c-3 -5 1 -10 10 -10 9 0 13 5 10 10 -3 6 -8 10 -10 10 -2
0 -7 -4 -10 -10z"/>
<path d="M3000 471 c0 -6 9 -9 19 -8 11 0 17 5 15 9 -7 11 -34 10 -34 -1z"/>
<path d="M3189 460 c13 -11 28 -20 35 -20 6 0 0 9 -14 20 -33 26 -52 25 -21 0z"/>
<path d="M3030 430 c0 -6 7 -13 15 -16 8 -4 12 -11 8 -17 -3 -6 -1 -7 5 -3 18
11 14 24 -8 36 -14 8 -20 8 -20 0z"/>
<path d="M3440 540 c0 -5 5 -10 10 -10 6 0 10 5 10 10 0 6 -4 10 -10 10 -5 0
-10 -4 -10 -10z"/>
<path d="M2187 4454 c-9 -10 2 -24 18 -24 9 0 12 6 9 15 -6 16 -17 19 -27 9z"/>
<path d="M2995 4430 c-3 -5 -1 -10 4 -10 6 0 11 5 11 10 0 6 -2 10 -4 10 -3 0
-8 -4 -11 -10z"/>
<path d="M1040 4409 c0 -14 38 -44 46 -36 2 2 -7 14 -21 27 -17 16 -25 19 -25
9z"/>
<path d="M3760 4401 c-22 -10 -36 -24 -38 -38 -3 -18 3 -23 35 -29 21 -3 43
-12 49 -19 5 -8 23 -17 38 -21 41 -10 30 18 -11 30 -23 7 -32 17 -35 37 -4 27
-4 27 49 26 40 -1 54 -5 58 -18 6 -19 32 -32 46 -23 15 9 10 30 -12 50 -28 25
-130 28 -179 5z"/>
<path d="M1533 4378 c-12 -17 -11 -40 3 -45 10 -3 23 25 24 50 0 11 -17 8 -27
-5z"/>
<path d="M4620 4365 c0 -19 5 -25 23 -25 13 0 33 -11 45 -25 22 -26 42 -33 42
-15 0 15 -38 50 -55 50 -8 0 -20 9 -27 20 -17 27 -28 25 -28 -5z"/>
<path d="M710 4365 c7 -9 15 -13 17 -11 7 7 -7 26 -19 26 -6 0 -6 -6 2 -15z"/>
<path d="M4578 4365 c-3 -6 -9 -26 -12 -45 l-7 -35 16 34 c14 32 17 68 3 46z"/>
<path d="M3535 4350 c-5 -8 54 -40 76 -40 16 0 9 19 -13 34 -25 18 -54 21 -63
6z"/>
<path d="M4150 4340 c0 -11 -12 -25 -27 -33 -38 -20 -38 -72 -1 -99 l28 -19
10 27 c6 15 9 33 6 41 -3 7 2 26 11 42 14 24 15 31 4 45 -18 22 -31 20 -31 -4z"/>
<path d="M4850 4322 c-9 -4 -27 -15 -40 -25 l-25 -17 26 -23 c14 -12 43 -46
64 -74 22 -29 45 -53 53 -53 11 0 12 3 4 13 -15 17 -52 136 -52 165 0 23 -5
25 -30 14z"/>
<path d="M2917 4263 c3 -7 9 -10 14 -7 14 8 11 21 -5 21 -8 0 -12 -6 -9 -14z"/>
<path d="M2645 4260 c3 -5 11 -10 16 -10 6 0 7 5 4 10 -3 6 -11 10 -16 10 -6
0 -7 -4 -4 -10z"/>
<path d="M3525 4260 c3 -5 10 -10 16 -10 5 0 9 5 9 10 0 6 -7 10 -16 10 -8 0
-12 -4 -9 -10z"/>
<path d="M3470 4250 c0 -5 5 -10 10 -10 6 0 10 5 10 10 0 6 -4 10 -10 10 -5 0
-10 -4 -10 -10z"/>
<path d="M2794 4238 c-3 -5 -2 -18 1 -31 5 -16 4 -18 -3 -8 -8 11 -12 10 -21
-8 -7 -12 -9 -27 -5 -34 4 -6 3 -9 -1 -4 -11 9 -57 -83 -50 -101 3 -7 0 -10
-5 -7 -6 3 -10 -1 -10 -10 0 -10 5 -14 13 -11 6 3 20 9 30 12 10 4 16 13 13
20 -5 13 11 62 24 74 18 16 40 63 40 84 0 13 6 26 13 29 6 3 2 4 -11 4 -13 -1
-26 -5 -28 -9z"/>
<path d="M4448 4243 c7 -3 16 -2 19 1 4 3 -2 6 -13 5 -11 0 -14 -3 -6 -6z"/>
<path d="M5021 4210 c1 -19 5 -46 9 -60 7 -21 8 -17 9 20 0 25 -4 52 -9 60 -7
11 -9 6 -9 -20z"/>
<path d="M1060 4209 c0 -5 5 -7 10 -4 6 3 10 8 10 11 0 2 -4 4 -10 4 -5 0 -10
-5 -10 -11z"/>
<path d="M3705 4202 c-3 -3 -5 -16 -5 -29 0 -18 5 -23 28 -23 25 -1 50 -24 82
-79 12 -20 27 -6 56 51 26 50 26 51 6 70 -17 17 -22 18 -40 7 -16 -10 -33 -11
-72 -3 -27 6 -52 8 -55 6z"/>
<path d="M3410 4160 c0 -5 5 -10 11 -10 5 0 7 5 4 10 -3 6 -8 10 -11 10 -2 0
-4 -4 -4 -10z"/>
<path d="M3615 4150 c3 -5 11 -10 16 -10 6 0 7 5 4 10 -3 6 -11 10 -16 10 -6
0 -7 -4 -4 -10z"/>
<path d="M1030 4140 c0 -5 7 -10 15 -10 8 0 15 5 15 10 0 6 -7 10 -15 10 -8 0
-15 -4 -15 -10z"/>
<path d="M1155 4100 c3 -5 13 -10 21 -10 8 0 12 5 9 10 -3 6 -13 10 -21 10 -8
0 -12 -4 -9 -10z"/>
<path d="M4120 4074 c0 -8 5 -12 10 -9 6 3 10 10 10 16 0 5 -4 9 -10 9 -5 0
-10 -7 -10 -16z"/>
<path d="M2760 4072 c0 -12 19 -26 26 -19 2 2 -2 10 -11 17 -9 8 -15 8 -15 2z"/>
<path d="M4380 4066 c0 -9 5 -16 10 -16 6 0 10 4 10 9 0 6 -4 13 -10 16 -5 3
-10 -1 -10 -9z"/>
<path d="M4572 4041 c-35 -31 -37 -37 -22 -75 8 -23 12 -24 40 -15 30 11 30
12 24 63 -4 28 -7 52 -8 53 -1 1 -16 -11 -34 -26z"/>
<path d="M4204 4044 c3 -9 6 -25 6 -37 1 -21 1 -21 15 3 9 18 10 29 3 37 -15
18 -31 16 -24 -3z"/>
<path d="M2721 3999 c-6 -18 -11 -35 -11 -38 1 -12 40 42 40 55 0 25 -18 15
-29 -17z"/>
<path d="M4318 4013 c-10 -3 -18 -8 -18 -13 0 -13 33 -21 44 -10 13 13 -3 28
-26 23z"/>
<path d="M4427 4006 c-3 -8 0 -19 7 -26 10 -8 15 -6 20 6 7 17 0 34 -14 34 -4
0 -10 -6 -13 -14z"/>
<path d="M2681 3964 c0 -11 3 -14 6 -6 3 7 2 16 -1 19 -3 4 -6 -2 -5 -13z"/>
<path d="M3920 3966 c0 -9 5 -16 10 -16 6 0 10 4 10 9 0 6 -4 13 -10 16 -5 3
-10 -1 -10 -9z"/>
<path d="M790 3960 c0 -5 5 -10 10 -10 6 0 10 5 10 10 0 6 -4 10 -10 10 -5 0
-10 -4 -10 -10z"/>
<path d="M2662 3940 c0 -14 -4 -38 -11 -53 -6 -16 -9 -32 -6 -37 3 -5 1 -10
-3 -12 -5 -1 -12 -16 -16 -32 -6 -26 -5 -28 8 -17 13 11 16 11 16 0 0 -8 -7
-22 -14 -32 -13 -16 -14 -16 -19 5 -4 12 -4 34 0 48 8 33 -1 24 -20 -22 -14
-34 -14 -38 4 -57 23 -24 24 -35 4 -65 -11 -16 -13 -31 -7 -47 12 -34 4 -59
-19 -59 -11 0 -17 -4 -14 -10 3 -5 2 -10 -3 -10 -5 0 -13 -24 -17 -52 -6 -47
-8 -50 -18 -31 -8 18 -6 32 8 63 15 33 16 42 5 55 -19 23 -30 1 -27 -53 1 -42
-19 -71 -50 -72 -19 0 -16 -18 5 -23 16 -4 16 -5 0 -6 -21 -1 -22 -15 -4 -56
l13 -30 6 43 c9 54 23 54 30 0 6 -43 38 -95 56 -91 6 2 8 -4 5 -12 -4 -8 -1
-15 5 -15 6 0 11 6 11 13 0 9 2 9 9 -1 4 -7 6 -25 3 -40 -5 -24 -3 -26 11 -13
9 7 14 17 11 22 -9 15 7 70 18 63 5 -3 9 -22 8 -43 -2 -40 8 -81 20 -81 4 0 5
29 2 65 -3 41 -1 65 5 65 13 0 25 -58 16 -73 -3 -5 -1 -7 4 -4 13 8 24 47 14
47 -4 0 -7 18 -8 40 -1 22 1 39 5 36 4 -2 13 2 20 10 10 12 10 14 -2 14 -16 0
-31 34 -21 49 8 14 -5 62 -16 55 -5 -3 -9 7 -9 23 0 22 2 25 10 13 8 -12 10
-11 10 8 0 12 -4 22 -10 22 -11 0 -14 30 -2 30 4 0 14 5 22 10 13 8 12 11 -4
23 -21 15 -32 57 -16 57 6 0 10 12 10 28 l-1 27 -15 -25 c-15 -24 -15 -21 0
28 5 13 3 22 -3 22 -6 0 -11 -9 -11 -20 0 -13 -5 -18 -15 -14 -12 5 -13 10 -4
20 6 7 8 18 4 24 -3 5 -1 10 5 10 8 0 10 9 6 27 -5 16 -3 29 5 34 15 9 15 90
0 116 -9 16 -10 15 -9 -7z m-13 -316 l-12 -29 -10 39 c-8 34 -7 41 9 53 17 13
19 12 22 -10 2 -13 -2 -36 -9 -53z m-10 -46 c-1 -7 -5 -24 -9 -38 -7 -22 -8
-21 -9 13 -1 20 4 37 9 37 6 0 10 -6 9 -12z m-36 -80 c2 -18 0 -36 -5 -39 -5
-3 -3 -13 6 -22 12 -12 14 -27 10 -61 -6 -42 -24 -66 -24 -31 0 8 -5 15 -11
15 -5 0 -7 5 -4 10 4 6 11 8 16 5 5 -4 9 6 8 22 0 24 -2 25 -8 8 -7 -17 -9
-14 -13 15 -3 19 -1 46 4 59 5 14 7 30 4 38 -3 7 -2 13 3 13 5 0 11 -15 14
-32z m44 -120 c-3 -8 -6 -5 -6 6 -1 11 2 17 5 13 3 -3 4 -12 1 -19z m13 -49
c0 -19 -1 -19 -16 -5 -8 9 -12 20 -9 26 9 15 25 2 25 -21z"/>
<path d="M4030 3951 c0 -8 43 -41 54 -41 3 0 0 11 -6 25 -10 23 -48 36 -48 16z"/>
<path d="M4183 3933 c-13 -9 -23 -21 -23 -27 0 -6 10 -16 23 -21 20 -9 22 -17
21 -77 0 -38 3 -68 8 -68 4 0 8 11 8 25 0 13 7 28 16 33 13 7 14 13 5 30 -6
11 -11 38 -11 60 0 50 -17 65 -47 45z"/>
<path d="M2690 3909 c0 -5 5 -7 10 -4 6 3 10 8 10 11 0 2 -4 4 -10 4 -5 0 -10
-5 -10 -11z"/>
<path d="M1050 3885 c0 -8 5 -15 10 -15 6 0 10 7 10 15 0 8 -4 15 -10 15 -5 0
-10 -7 -10 -15z"/>
<path d="M4660 3866 c0 -37 15 -55 32 -38 6 6 4 20 -6 41 -21 40 -26 39 -26
-3z"/>
<path d="M957 3870 c-3 -14 -2 -29 3 -34 16 -16 23 1 13 31 l-9 27 -7 -24z"/>
<path d="M4755 3870 c3 -5 8 -10 11 -10 2 0 4 5 4 10 0 6 -5 10 -11 10 -5 0
-7 -4 -4 -10z"/>
<path d="M3375 3860 c3 -5 8 -10 11 -10 2 0 4 5 4 10 0 6 -5 10 -11 10 -5 0
-7 -4 -4 -10z"/>
<path d="M4065 3858 c-9 -23 0 -47 20 -55 31 -11 37 13 11 43 -22 26 -25 27
-31 12z"/>
<path d="M3532 3842 c-21 -7 -13 -20 34 -51 47 -32 64 -38 64 -21 0 6 -6 10
-14 10 -8 0 -27 15 -43 33 -16 18 -35 31 -41 29z"/>
<path d="M4320 3825 c-12 -33 -19 -23 77 -106 17 -15 37 -36 44 -46 16 -23 59
-40 59 -24 0 6 -4 11 -9 11 -6 0 -13 20 -16 44 -7 42 -9 45 -45 51 -38 6 -74
38 -90 78 -8 21 -8 21 -20 -8z"/>
<path d="M3417 3811 c-4 -17 -3 -21 5 -13 5 5 8 16 6 23 -3 8 -7 3 -11 -10z"/>
<path d="M991 3783 c-1 -24 4 -43 9 -43 12 0 12 24 0 60 -7 21 -8 19 -9 -17z"/>
<path d="M2771 3804 c0 -11 3 -14 6 -6 3 7 2 16 -1 19 -3 4 -6 -2 -5 -13z"/>
<path d="M3750 3790 c0 -5 5 -10 10 -10 6 0 10 5 10 10 0 6 -4 10 -10 10 -5 0
-10 -4 -10 -10z"/>
<path d="M2716 3782 c-4 -7 -4 -12 1 -12 4 0 2 -4 -6 -9 -9 -6 -10 -11 -2 -15
12 -8 25 16 19 36 -3 9 -6 9 -12 0z"/>
<path d="M1866 3743 c0 -15 6 -29 13 -31 10 -3 11 2 6 19 -11 36 -21 42 -19
12z"/>
<path d="M4620 3731 c0 -33 -30 -61 -66 -61 -23 0 -40 -25 -23 -35 5 -4 18 -4
28 0 13 4 31 -4 55 -26 21 -18 42 -29 51 -25 19 7 19 25 0 32 -22 9 -18 34 4
34 25 0 36 16 16 23 -8 4 -23 24 -35 47 -24 48 -30 50 -30 11z"/>
<path d="M3795 3720 c-3 -5 -1 -10 4 -10 6 0 11 5 11 10 0 6 -2 10 -4 10 -3 0
-8 -4 -11 -10z"/>
<path d="M4190 3718 c0 -19 26 -42 34 -30 3 5 -3 17 -14 27 -17 15 -20 16 -20
3z"/>
<path d="M1860 3683 c0 -7 6 -13 14 -13 7 0 16 -14 20 -32 3 -17 9 -29 12 -26
11 11 -16 85 -31 85 -8 0 -15 -6 -15 -14z"/>
<path d="M2553 3673 c3 -12 0 -24 -6 -26 -7 -2 -7 -9 -2 -18 5 -8 9 -23 8 -34
-1 -15 0 -16 3 -3 3 10 11 15 20 11 19 -7 17 4 -7 52 -11 22 -18 30 -16 18z"/>
<path d="M4774 3668 c-4 -6 4 -21 20 -35 45 -38 61 -26 30 22 -17 27 -38 32
-50 13z"/>
<path d="M3970 3640 c0 -5 7 -10 15 -10 7 0 19 -8 24 -17 9 -15 10 -15 11 -2
0 8 -5 20 -12 27 -15 15 -38 16 -38 2z"/>
<path d="M3615 3630 c-3 -6 1 -13 10 -16 19 -8 30 0 20 15 -8 14 -22 14 -30 1z"/>
<path d="M4306 3605 c-3 -9 -19 -18 -36 -22 -24 -4 -29 -10 -24 -22 3 -9 7
-25 8 -36 1 -14 8 -20 26 -20 15 0 26 -7 28 -18 2 -11 13 -17 33 -17 34 0 36
8 9 60 -11 22 -20 48 -20 59 0 25 -16 36 -24 16z"/>
<path d="M1920 3601 c0 -5 5 -13 10 -16 6 -3 10 -2 10 4 0 5 -4 13 -10 16 -5
3 -10 2 -10 -4z"/>
<path d="M1026 3592 c-2 -4 6 -17 18 -30 23 -21 24 -21 40 -3 10 11 14 21 9
24 -19 10 -62 17 -67 9z"/>
<path d="M1950 3590 c0 -5 5 -10 11 -10 5 0 7 5 4 10 -3 6 -8 10 -11 10 -2 0
-4 -4 -4 -10z"/>
<path d="M2780 3588 c0 -9 5 -20 10 -23 13 -8 13 5 0 25 -8 13 -10 13 -10 -2z"/>
<path d="M2745 3570 c3 -5 8 -10 11 -10 2 0 4 5 4 10 0 6 -5 10 -11 10 -5 0
-7 -4 -4 -10z"/>
<path d="M1960 3527 c0 -25 4 -48 8 -51 9 -5 7 82 -2 91 -3 4 -6 -14 -6 -40z"/>
<path d="M3598 3553 c7 -3 16 -2 19 1 4 3 -2 6 -13 5 -11 0 -14 -3 -6 -6z"/>
<path d="M4082 3501 c34 -50 48 -55 48 -17 0 13 -12 31 -30 44 -47 35 -53 26
-18 -27z"/>
<path d="M3912 3519 c-7 -18 -6 -26 5 -32 10 -6 12 -18 8 -38 -9 -41 2 -66 35
-82 26 -13 30 -13 44 2 13 15 12 19 -18 39 -28 19 -34 31 -39 68 -6 57 -23 77
-35 43z"/>
<path d="M4480 3517 c0 -13 6 -31 13 -41 13 -18 14 -18 21 -1 4 10 0 28 -9 41
-19 30 -25 30 -25 1z"/>
<path d="M1051 3504 c-17 -38 -15 -78 5 -70 9 3 22 6 30 6 11 0 12 4 4 19 -5
11 -10 29 -10 40 0 30 -16 33 -29 5z"/>
<path d="M35 3510 c-4 -6 2 -23 12 -40 13 -22 25 -30 45 -30 35 0 36 17 3 30
-14 5 -25 16 -25 24 0 17 -27 29 -35 16z"/>
<path d="M1280 3504 c0 -8 5 -12 10 -9 6 4 8 11 5 16 -9 14 -15 11 -15 -7z"/>
<path d="M155 3490 c-3 -5 1 -10 9 -10 9 0 16 5 16 10 0 6 -4 10 -9 10 -6 0
-13 -4 -16 -10z"/>
<path d="M2 3425 c1 -30 5 -55 10 -55 13 0 21 51 10 62 -8 8 -8 15 -2 24 7 8
6 13 -4 17 -13 5 -15 -4 -14 -48z"/>
<path d="M3390 3444 c0 -8 5 -12 10 -9 6 3 10 10 10 16 0 5 -4 9 -10 9 -5 0
-10 -7 -10 -16z"/>
<path d="M4945 3450 c-3 -5 1 -10 10 -10 9 0 13 5 10 10 -3 6 -8 10 -10 10 -2
0 -7 -4 -10 -10z"/>
<path d="M4466 3441 c-4 -7 -5 -15 -2 -18 9 -9 19 4 14 18 -4 11 -6 11 -12 0z"/>
<path d="M3770 3430 c0 -5 5 -10 10 -10 6 0 10 5 10 10 0 6 -4 10 -10 10 -5 0
-10 -4 -10 -10z"/>
<path d="M3366 3412 c-9 -15 3 -143 16 -174 7 -15 21 -28 30 -28 9 0 20 -4 23
-10 3 -5 12 -10 20 -10 19 0 6 50 -33 125 -9 16 -18 45 -21 64 -6 34 -24 51
-35 33z"/>
<path d="M4086 3404 c-10 -26 -8 -29 30 -43 39 -14 59 -50 50 -93 -6 -29 5
-37 44 -32 14 2 34 5 45 6 13 2 19 -2 17 -11 -15 -68 -15 -68 15 -74 32 -7 86
-54 78 -68 -4 -5 -19 -9 -36 -9 -16 0 -29 -2 -29 -5 0 -3 12 -24 27 -46 14
-22 28 -50 29 -62 1 -12 3 -25 3 -29 2 -14 21 -9 21 5 0 7 9 30 20 52 11 22
20 58 20 80 0 23 5 46 12 53 18 18 0 28 -24 13 -19 -12 -23 -11 -38 8 -9 12
-27 28 -40 35 -21 10 -25 19 -23 52 1 39 0 41 -50 64 -29 14 -72 46 -96 72
-46 50 -65 58 -75 32z"/>
<path d="M510 3378 c0 -16 5 -28 10 -28 13 0 13 20 0 40 -8 12 -10 9 -10 -12z"/>
<path d="M3066 3381 c-11 -12 -15 -25 -10 -33 5 -7 9 -16 10 -20 1 -5 2 -11 3
-14 0 -4 8 -1 16 6 16 13 21 80 7 80 -5 0 -17 -9 -26 -19z"/>
<path d="M5000 3385 c0 -8 5 -15 10 -15 6 0 10 7 10 15 0 8 -4 15 -10 15 -5 0
-10 -7 -10 -15z"/>
<path d="M3786 3341 c-20 -38 -2 -54 22 -20 20 28 21 41 5 46 -6 2 -19 -9 -27
-26z"/>
<path d="M4497 3364 c-17 -18 -7 -34 18 -28 17 4 46 -3 86 -21 44 -20 64 -24
72 -16 16 16 0 27 -68 46 -98 26 -100 27 -108 19z"/>
<path d="M160 3350 c20 -13 33 -13 25 0 -3 6 -14 10 -23 10 -15 0 -15 -2 -2
-10z"/>
<path d="M4816 3345 c4 -8 8 -15 10 -15 2 0 4 7 4 15 0 8 -4 15 -10 15 -5 0
-7 -7 -4 -15z"/>
<path d="M4930 3351 c0 -6 5 -13 10 -16 6 -3 10 -15 10 -26 0 -10 6 -19 14
-19 7 0 28 -3 45 -6 20 -4 31 -3 31 5 0 6 -11 11 -23 11 -25 0 -57 28 -57 48
0 7 -7 12 -15 12 -8 0 -15 -4 -15 -9z"/>
<path d="M1980 3327 c0 -14 5 -29 10 -32 7 -4 8 3 4 22 -9 38 -14 42 -14 10z"/>
<path d="M210 3300 c0 -11 5 -20 10 -20 6 0 10 9 10 20 0 11 -4 20 -10 20 -5
0 -10 -9 -10 -20z"/>
<path d="M3931 3294 c-19 -13 -43 -24 -53 -24 -26 0 -17 -24 10 -28 12 -2 22
-9 22 -16 0 -7 11 -26 25 -42 14 -16 25 -32 25 -36 0 -11 22 -10 38 1 11 7 11
22 -5 90 -10 44 -20 81 -23 80 -3 0 -20 -12 -39 -25z"/>
<path d="M4480 3290 c0 -5 5 -10 10 -10 6 0 10 5 10 10 0 6 -4 10 -10 10 -5 0
-10 -4 -10 -10z"/>
<path d="M1380 3255 c0 -8 7 -15 16 -15 14 0 14 3 4 15 -7 8 -14 15 -16 15 -2
0 -4 -7 -4 -15z"/>
<path d="M4710 3251 c-25 -7 -25 -7 9 -19 24 -9 32 -16 27 -28 -3 -8 -6 -20
-6 -26 0 -6 -9 -8 -20 -5 -10 3 -21 0 -23 -7 -6 -16 11 -46 26 -46 7 0 18 -5
25 -12 12 -12 87 -13 124 -2 16 5 16 7 1 42 -10 20 -33 54 -52 75 -36 38 -57
43 -111 28z"/>
<path d="M114 3227 c-8 -21 2 -35 16 -21 5 5 6 15 0 24 -8 12 -10 12 -16 -3z"/>
<path d="M3030 3203 c0 -5 4 -15 10 -23 11 -18 25 -7 17 15 -6 15 -27 21 -27
8z"/>
<path d="M470 3190 c0 -22 16 -43 28 -39 7 3 3 14 -8 29 -13 17 -20 20 -20 10z"/>
<path d="M1700 3180 c0 -5 5 -10 11 -10 5 0 7 5 4 10 -3 6 -8 10 -11 10 -2 0
-4 -4 -4 -10z"/>
<path d="M2 3169 c5 -16 78 -26 78 -10 0 5 -8 10 -17 10 -10 -1 -29 3 -42 7
-18 5 -23 4 -19 -7z"/>
<path d="M3773 3110 c-1 -38 2 -72 7 -75 4 -2 15 4 25 15 25 27 41 25 53 -7
14 -37 49 -79 58 -71 4 4 -1 19 -10 32 -9 14 -16 33 -16 42 0 19 -90 133 -105
133 -7 1 -11 -27 -12 -69z"/>
<path d="M1295 3140 c3 -5 8 -10 11 -10 2 0 4 5 4 10 0 6 -5 10 -11 10 -5 0
-7 -4 -4 -10z"/>
<path d="M3420 3130 c0 -5 5 -10 10 -10 6 0 10 5 10 10 0 6 -4 10 -10 10 -5 0
-10 -4 -10 -10z"/>
<path d="M3590 3130 c-12 -7 -12 -12 0 -34 19 -36 35 -32 36 9 1 35 -9 42 -36
25z"/>
<path d="M4650 3122 c0 -21 45 -64 88 -83 19 -8 32 -21 32 -32 0 -10 4 -16 8
-13 20 12 -1 66 -32 85 -17 11 -38 29 -46 40 -18 26 -50 28 -50 3z"/>
<path d="M330 3104 c0 -8 5 -12 10 -9 6 3 10 10 10 16 0 5 -4 9 -10 9 -5 0
-10 -7 -10 -16z"/>
<path d="M4235 3090 c17 -33 32 -38 42 -15 6 17 -22 44 -45 45 -9 0 -9 -7 3
-30z"/>
<path d="M3989 3074 c-11 -14 -9 -19 11 -35 37 -27 52 -25 44 9 -4 15 -9 30
-11 35 -7 12 -30 8 -44 -9z"/>
<path d="M4518 3082 c-21 -4 -21 -6 -9 -30 13 -23 25 -73 22 -94 -1 -9 7 -19
19 -23 30 -10 36 1 14 26 -18 20 -18 21 1 35 10 8 22 14 27 14 17 0 7 22 -12
27 -11 3 -20 11 -20 18 0 18 -22 32 -42 27z"/>
<path d="M2026 3071 c-4 -7 -5 -15 -2 -18 9 -9 19 4 14 18 -4 11 -6 11 -12 0z"/>
<path d="M75 3060 c-3 -6 1 -13 10 -16 19 -8 30 0 20 15 -8 14 -22 14 -30 1z"/>
<path d="M3645 3040 c-3 -5 -2 -18 3 -27 10 -20 5 -44 -12 -55 -6 -4 -4 -10 8
-14 23 -9 36 11 36 57 0 36 -22 60 -35 39z"/>
<path d="M3532 3018 c-17 -17 -15 -25 8 -31 25 -7 33 5 17 27 -10 13 -15 14
-25 4z"/>
<path d="M4430 2985 c-11 -13 -9 -20 10 -40 13 -14 32 -25 42 -25 26 0 24 45
-4 64 -28 20 -32 20 -48 1z"/>
<path d="M4106 2932 c-20 -72 -20 -69 5 -75 19 -5 21 -11 16 -41 -6 -35 4 -53
23 -41 6 3 5 15 -2 31 -10 22 -9 28 5 39 21 15 22 31 1 39 -11 4 -14 13 -10
31 7 28 -2 75 -14 75 -4 0 -15 -26 -24 -58z"/>
<path d="M4724 2932 c-6 -4 -10 -24 -10 -46 0 -38 0 -38 18 -16 9 12 23 18 29
15 8 -6 8 -2 0 11 -21 37 -27 43 -37 36z"/>
<path d="M4908 2928 c-26 -22 -29 -47 -7 -69 22 -22 39 -17 39 12 0 25 16 25
23 -1 3 -11 13 -20 22 -20 9 0 25 -10 36 -22 l18 -23 1 32 c0 32 -37 73 -65
73 -7 0 -18 7 -25 15 -15 18 -22 19 -42 3z"/>
<path d="M3777 2913 c-4 -3 -7 -15 -7 -25 0 -13 7 -18 25 -18 15 0 25 -6 25
-14 0 -8 7 -16 15 -20 8 -3 18 -23 21 -46 8 -49 32 -54 32 -6 0 18 7 47 16 64
24 47 21 52 -39 52 -30 0 -55 5 -55 10 0 11 -23 14 -33 3z"/>
<path d="M2016 2885 c-3 -9 -6 -22 -5 -28 0 -7 5 -1 10 12 5 13 8 26 5 28 -2
2 -6 -3 -10 -12z"/>
<path d="M3450 2891 c0 -6 5 -13 10 -16 6 -3 10 1 10 9 0 9 -4 16 -10 16 -5 0
-10 -4 -10 -9z"/>
<path d="M3523 2861 c-8 -13 -19 -18 -34 -14 -16 4 -20 2 -17 -8 2 -8 15 -16
29 -17 13 -2 36 -17 51 -33 15 -16 36 -29 48 -29 26 0 17 18 -16 30 -13 5 -24
15 -24 22 -1 7 -6 26 -13 41 -11 26 -13 27 -24 8z"/>
<path d="M3360 2830 c0 -5 9 -10 21 -10 11 0 17 5 14 10 -3 6 -13 10 -21 10
-8 0 -14 -4 -14 -10z"/>
<path d="M4266 2831 c-4 -7 -5 -15 -2 -18 9 -9 19 4 14 18 -4 11 -6 11 -12 0z"/>
<path d="M4499 2814 c-9 -11 -8 -15 4 -20 9 -3 20 -3 26 0 13 9 40 -20 48 -52
10 -44 31 -68 79 -92 41 -21 44 -26 39 -52 -4 -15 -3 -28 2 -28 4 0 14 -4 22
-9 11 -7 11 -13 1 -32 -7 -13 -9 -21 -5 -17 4 4 14 0 21 -10 14 -18 13 -21 18
41 1 6 11 23 24 37 22 25 22 25 3 40 -11 8 -24 27 -30 42 -8 22 -17 27 -48 30
-37 3 -38 4 -48 54 -9 48 -12 51 -33 43 -16 -6 -34 -2 -67 15 -37 20 -46 22
-56 10z"/>
<path d="M3246 2812 c-7 -12 32 -74 43 -68 14 9 -3 71 -21 74 -9 2 -19 -1 -22
-6z"/>
<path d="M3730 2773 c0 -22 2 -25 10 -13 13 20 13 40 0 40 -5 0 -10 -12 -10
-27z"/>
<path d="M3665 2780 c-11 -17 5 -32 21 -19 7 6 11 15 8 20 -7 12 -21 11 -29
-1z"/>
<path d="M4454 2743 c-3 -10 -9 -27 -14 -39 -6 -16 -3 -25 12 -38 31 -27 46
-14 43 41 -1 36 -6 49 -18 51 -10 2 -20 -5 -23 -15z"/>
<path d="M3330 2731 c0 -5 5 -13 10 -16 6 -3 10 -2 10 4 0 5 -4 13 -10 16 -5
3 -10 2 -10 -4z"/>
<path d="M5025 2731 c-3 -5 -1 -12 5 -16 5 -3 10 1 10 9 0 18 -6 21 -15 7z"/>
<path d="M4770 2710 c0 -5 7 -10 16 -10 8 0 12 5 9 10 -3 6 -10 10 -16 10 -5
0 -9 -4 -9 -10z"/>
<path d="M1640 2690 c0 -5 5 -10 10 -10 6 0 10 5 10 10 0 6 -4 10 -10 10 -5 0
-10 -4 -10 -10z"/>
<path d="M3433 2672 c-49 -23 -52 -50 -12 -84 42 -36 85 -59 92 -51 4 3 18 -2
32 -11 20 -13 25 -24 25 -60 0 -36 5 -47 26 -61 26 -17 41 -15 29 4 -3 6 -11
9 -16 6 -5 -4 -9 -2 -9 4 0 5 4 11 9 13 4 2 11 24 15 51 6 39 5 47 -9 47 -20
0 -125 102 -125 122 0 29 -23 37 -57 20z"/>
<path d="M4016 2681 c-11 -17 12 -56 43 -76 17 -11 31 -23 31 -28 0 -12 73
-77 86 -77 24 0 23 17 -1 40 -14 13 -25 34 -25 47 0 16 -6 23 -20 23 -11 0
-37 18 -59 40 -41 42 -46 45 -55 31z"/>
<path d="M3040 2660 c0 -5 5 -10 10 -10 6 0 10 5 10 10 0 6 -4 10 -10 10 -5 0
-10 -4 -10 -10z"/>
<path d="M50 2650 c0 -5 5 -10 10 -10 6 0 10 5 10 10 0 6 -4 10 -10 10 -5 0
-10 -4 -10 -10z"/>
<path d="M3940 2640 c0 -5 5 -10 11 -10 5 0 7 5 4 10 -3 6 -8 10 -11 10 -2 0
-4 -4 -4 -10z"/>
<path d="M4287 2643 c-4 -3 -7 -15 -7 -26 0 -16 3 -17 15 -7 8 7 15 19 15 26
0 15 -12 19 -23 7z"/>
<path d="M2186 2615 c-9 -14 -13 -25 -9 -25 10 0 36 40 30 46 -2 3 -12 -7 -21
-21z"/>
<path d="M3770 2632 c0 -5 7 -16 16 -23 14 -12 16 -11 13 5 -4 20 -29 35 -29
18z"/>
<path d="M42 2620 c3 -8 14 -20 25 -25 12 -6 28 -17 37 -24 21 -17 30 -9 21
18 -4 15 -15 21 -34 21 -15 0 -33 6 -40 13 -11 10 -13 9 -9 -3z"/>
<path d="M4442 2618 c-12 -15 -2 -29 72 -98 38 -35 47 -40 41 -22 -5 16 -2 22
9 22 8 0 18 -4 21 -10 12 -20 25 -9 25 21 0 26 -3 29 -20 25 -11 -3 -29 -8
-39 -11 -15 -5 -27 5 -51 40 -33 48 -41 53 -58 33z"/>
<path d="M2425 2579 c-9 -27 8 -45 24 -26 12 15 5 47 -9 47 -5 0 -12 -9 -15
-21z"/>
<path d="M3865 2563 c-5 -21 -2 -32 15 -45 24 -20 46 -23 54 -9 9 14 -7 46
-24 46 -8 0 -14 8 -14 18 3 28 -23 20 -31 -10z"/>
<path d="M4655 2572 c-6 -4 -11 -30 -11 -59 0 -37 -5 -58 -19 -73 -18 -20 -18
-23 -3 -34 17 -13 88 -10 88 4 0 4 -7 13 -15 20 -8 7 -15 20 -15 29 0 9 -6 23
-12 30 -11 10 -9 15 5 26 16 12 17 16 5 39 -7 14 -18 22 -23 18z"/>
<path d="M1145 2560 c3 -5 10 -10 16 -10 5 0 9 5 9 10 0 6 -7 10 -16 10 -8 0
-12 -4 -9 -10z"/>
<path d="M4010 2557 c0 -19 21 -37 42 -37 24 0 23 27 -1 40 -26 14 -41 13 -41
-3z"/>
<path d="M855 2550 c-8 -13 4 -32 16 -25 12 8 12 35 0 35 -6 0 -13 -4 -16 -10z"/>
<path d="M358 2518 c9 -9 15 -9 24 0 9 9 7 12 -12 12 -19 0 -21 -3 -12 -12z"/>
<path d="M2888 2487 c-19 -17 -50 -56 -67 -85 -18 -28 -36 -52 -41 -52 -14 0
-20 -60 -8 -85 6 -14 21 -28 34 -31 44 -11 68 0 97 47 29 47 33 77 24 172 -2
26 -1 47 4 47 5 0 9 5 9 10 0 18 -15 11 -52 -23z"/>
<path d="M2198 2493 c-8 -10 -14 -22 -13 -28 8 -70 18 -105 31 -105 13 0 13 3
0 22 -18 26 -21 80 -6 109 13 24 8 25 -12 2z"/>
<path d="M4110 2495 c0 -16 27 -32 37 -21 7 7 -16 36 -28 36 -5 0 -9 -7 -9
-15z"/>
<path d="M680 2490 c0 -5 5 -10 10 -10 6 0 10 5 10 10 0 6 -4 10 -10 10 -5 0
-10 -4 -10 -10z"/>
<path d="M2247 2486 c-4 -10 -1 -13 9 -9 15 6 19 23 5 23 -5 0 -11 -7 -14 -14z"/>
<path d="M70 2481 c0 -12 29 -41 41 -41 5 0 2 11 -7 25 -16 25 -34 33 -34 16z"/>
<path d="M2305 2480 c-3 -5 1 -10 9 -10 9 0 16 5 16 10 0 6 -4 10 -9 10 -6 0
-13 -4 -16 -10z"/>
<path d="M4168 2455 c2 -19 9 -35 14 -35 6 0 8 10 4 23 -3 12 -6 28 -6 35 0 6
-4 12 -8 12 -4 0 -6 -16 -4 -35z"/>
<path d="M1425 2470 c-3 -5 -1 -10 4 -10 6 0 11 5 11 10 0 6 -2 10 -4 10 -3 0
-8 -4 -11 -10z"/>
<path d="M3470 2461 c0 -6 9 -15 21 -21 18 -10 20 -9 17 7 -3 19 -38 32 -38
14z"/>
<path d="M3771 2442 c-7 -13 -10 -36 -6 -52 5 -22 13 -29 42 -35 42 -8 55 1
29 21 -11 7 -27 30 -36 51 -16 38 -17 38 -29 15z"/>
<path d="M3400 2440 c0 -5 5 -10 11 -10 5 0 7 5 4 10 -3 6 -8 10 -11 10 -2 0
-4 -4 -4 -10z"/>
<path d="M2070 2425 c0 -8 5 -15 10 -15 6 0 10 7 10 15 0 8 -4 15 -10 15 -5 0
-10 -7 -10 -15z"/>
<path d="M2135 2410 c3 -19 8 -52 12 -72 6 -41 33 -53 33 -15 0 18 -2 19 -10
7 -7 -12 -10 -8 -11 15 0 17 -7 46 -15 65 l-14 35 5 -35z"/>
<path d="M4220 2430 c0 -5 7 -10 16 -10 8 0 12 5 9 10 -3 6 -10 10 -16 10 -5
0 -9 -4 -9 -10z"/>
<path d="M2266 2405 c4 -8 8 -15 10 -15 2 0 4 7 4 15 0 8 -4 15 -10 15 -5 0
-7 -7 -4 -15z"/>
<path d="M2446 2395 c4 -8 8 -15 10 -15 2 0 4 7 4 15 0 8 -4 15 -10 15 -5 0
-7 -7 -4 -15z"/>
<path d="M4800 2399 c0 -5 5 -7 10 -4 6 3 10 8 10 11 0 2 -4 4 -10 4 -5 0 -10
-5 -10 -11z"/>
<path d="M1525 2370 c3 -5 10 -10 16 -10 5 0 9 5 9 10 0 6 -7 10 -16 10 -8 0
-12 -4 -9 -10z"/>
<path d="M3112 2355 c0 -16 2 -22 5 -12 2 9 2 23 0 30 -3 6 -5 -1 -5 -18z"/>
<path d="M3937 2373 c-6 -11 9 -49 22 -58 15 -9 14 8 -3 40 -8 14 -16 23 -19
18z"/>
<path d="M2262 2353 c2 -9 9 -18 16 -19 7 -1 8 0 3 2 -6 3 -7 12 -4 20 3 8 0
14 -7 14 -6 0 -10 -8 -8 -17z"/>
<path d="M2215 2341 c-3 -5 -1 -12 5 -16 5 -3 10 1 10 9 0 18 -6 21 -15 7z"/>
<path d="M3170 2335 c0 -8 7 -15 16 -15 14 0 14 3 4 15 -7 8 -14 15 -16 15 -2
0 -4 -7 -4 -15z"/>
<path d="M1272 2323 c-10 -4 -10 -8 -1 -19 6 -8 16 -11 21 -8 6 4 14 1 18 -6
4 -7 13 -9 20 -5 8 5 7 12 -6 26 -17 19 -28 22 -52 12z"/>
<path d="M3540 2297 c0 -9 8 -24 18 -34 11 -10 21 -26 25 -35 6 -17 42 -15 53
4 8 13 -16 38 -37 38 -10 0 -27 10 -39 22 -16 18 -20 19 -20 5z"/>
<path d="M630 2292 c0 -5 9 -17 20 -27 15 -14 20 -15 20 -4 0 8 -9 20 -20 27
-11 7 -20 8 -20 4z"/>
<path d="M3118 2294 c-16 -25 -4 -66 22 -76 14 -6 32 -14 42 -19 11 -5 20 -3
28 6 9 11 5 15 -24 20 -40 8 -53 20 -58 55 -2 15 -6 21 -10 14z"/>
<path d="M250 2280 c0 -5 7 -10 15 -10 8 0 15 5 15 10 0 6 -7 10 -15 10 -8 0
-15 -4 -15 -10z"/>
<path d="M1364 2265 c-13 -21 -14 -27 -2 -39 33 -37 40 -48 34 -53 -10 -10
-65 18 -60 31 7 17 -32 51 -41 36 -4 -6 -1 -18 7 -27 11 -14 11 -16 -4 -10
-24 9 -44 -18 -28 -38 7 -8 10 -22 6 -30 -3 -8 -1 -15 3 -15 5 0 11 7 14 15 5
11 18 13 59 8 62 -7 78 -17 50 -32 -16 -8 -21 -7 -26 5 -4 11 -10 12 -23 5
-20 -10 -24 -11 -54 -11 -15 0 -19 -4 -15 -16 4 -9 1 -23 -5 -30 -15 -18 -3
-34 26 -34 13 0 26 -6 28 -12 4 -10 8 -10 15 1 6 8 17 11 26 8 12 -5 16 0 16
22 0 20 7 31 24 39 14 6 26 22 29 41 8 38 27 41 27 4 1 -31 21 -63 40 -63 16
0 4 51 -16 67 -9 6 -14 20 -13 30 6 37 -55 122 -88 123 -7 0 -20 -11 -29 -25z
m-44 -205 c0 -5 -2 -10 -4 -10 -3 0 -8 5 -11 10 -3 6 -1 10 4 10 6 0 11 -4 11
-10z"/>
<path d="M2218 2264 c3 -17 1 -25 -5 -21 -6 4 -13 -3 -17 -16 -8 -32 -7 -39 4
-32 6 3 10 -2 10 -12 1 -17 2 -17 13 -1 16 20 16 100 1 105 -7 2 -10 -6 -6
-23z"/>
<path d="M3875 2280 c-3 -5 -1 -10 4 -10 6 0 11 5 11 10 0 6 -2 10 -4 10 -3 0
-8 -4 -11 -10z"/>
<path d="M2485 2270 c-3 -5 -1 -10 4 -10 6 0 11 5 11 10 0 6 -2 10 -4 10 -3 0
-8 -4 -11 -10z"/>
<path d="M3387 2249 c-3 -12 0 -22 9 -26 20 -7 24 -1 17 25 -7 28 -19 28 -26
1z"/>
<path d="M2271 2234 c0 -11 3 -14 6 -6 3 7 2 16 -1 19 -3 4 -6 -2 -5 -13z"/>
<path d="M2388 2243 c7 -3 16 -2 19 1 4 3 -2 6 -13 5 -11 0 -14 -3 -6 -6z"/>
<path d="M3995 2240 c3 -5 8 -10 11 -10 2 0 4 5 4 10 0 6 -5 10 -11 10 -5 0
-7 -4 -4 -10z"/>
<path d="M870 2230 c0 -5 5 -10 10 -10 6 0 10 5 10 10 0 6 -4 10 -10 10 -5 0
-10 -4 -10 -10z"/>
<path d="M2170 2230 c0 -5 5 -10 10 -10 6 0 10 5 10 10 0 6 -4 10 -10 10 -5 0
-10 -4 -10 -10z"/>
<path d="M535 2220 c-3 -5 1 -10 10 -10 9 0 13 5 10 10 -3 6 -8 10 -10 10 -2
0 -7 -4 -10 -10z"/>
<path d="M2396 2214 c-4 -9 -4 -19 -1 -22 2 -3 7 3 11 12 4 9 4 19 1 22 -2 3
-7 -3 -11 -12z"/>
<path d="M3787 2223 c-9 -9 12 -33 30 -33 11 0 11 4 3 20 -11 21 -22 25 -33
13z"/>
<path d="M3320 2202 c0 -14 11 -21 26 -15 8 3 11 9 8 14 -7 11 -34 12 -34 1z"/>
<path d="M300 2186 c0 -9 5 -16 10 -16 6 0 10 4 10 9 0 6 -4 13 -10 16 -5 3
-10 -1 -10 -9z"/>
<path d="M3650 2168 c0 -21 13 -34 50 -51 52 -23 74 -27 89 -18 10 7 -5 19
-57 45 -80 40 -82 41 -82 24z"/>
<path d="M2250 2159 c0 -5 5 -7 10 -4 6 3 10 8 10 11 0 2 -4 4 -10 4 -5 0 -10
-5 -10 -11z"/>
<path d="M2210 2150 c0 -5 10 -15 23 -21 12 -7 25 -17 29 -23 5 -7 8 -6 8 4 0
8 -14 23 -30 32 -17 9 -30 13 -30 8z"/>
<path d="M3420 2149 c0 -5 4 -8 9 -4 12 7 26 -14 26 -40 0 -17 6 -20 38 -17
21 2 44 -1 52 -8 9 -7 15 -8 19 -1 4 6 -6 17 -21 25 -15 8 -35 24 -43 35 -15
22 -80 30 -80 10z"/>
<path d="M228 2119 c-16 -9 -16 -11 3 -30 20 -20 39 -18 39 5 0 22 -23 36 -42
25z"/>
<path d="M1127 2124 c-22 -22 14 -68 44 -59 11 4 19 2 19 -4 0 -14 37 -51 50
-51 14 0 13 41 -2 73 -15 31 -26 34 -44 10 -13 -17 -16 -16 -37 10 -13 15 -26
24 -30 21z"/>
<path d="M981 2104 c0 -11 3 -14 6 -6 3 7 2 16 -1 19 -3 4 -6 -2 -5 -13z"/>
<path d="M3841 2074 c0 -11 3 -14 6 -6 3 7 2 16 -1 19 -3 4 -6 -2 -5 -13z"/>
<path d="M3252 2063 c2 -10 11 -19 21 -21 16 -3 17 -1 7 17 -13 25 -33 28 -28
4z"/>
<path d="M615 2051 c-3 -6 0 -20 8 -31 11 -16 16 -18 24 -8 8 9 5 18 -7 31
-12 12 -20 15 -25 8z"/>
<path d="M970 2040 c-12 -8 -11 -10 8 -10 12 0 22 5 22 10 0 13 -11 13 -30 0z"/>
<path d="M2210 2036 c0 -9 5 -16 10 -16 6 0 10 4 10 9 0 6 -4 13 -10 16 -5 3
-10 -1 -10 -9z"/>
<path d="M3807 2043 c-15 -14 -6 -31 18 -35 31 -6 41 7 21 27 -16 16 -29 19
-39 8z"/>
<path d="M1026 2014 c-3 -8 -12 -14 -21 -14 -17 0 -19 -9 -5 -30 8 -13 10 -12
10 3 0 12 8 17 30 17 22 0 30 5 30 18 0 22 -36 27 -44 6z"/>
<path d="M3175 2010 c20 -22 31 -20 22 5 -4 8 -14 15 -23 15 -16 0 -16 -2 1
-20z"/>
<path d="M576 2012 c-12 -11 -6 -70 8 -81 18 -15 30 1 33 45 1 24 -3 33 -17
37 -10 3 -21 2 -24 -1z"/>
<path d="M1257 1966 c3 -17 9 -33 13 -36 4 -3 10 -12 13 -20 4 -10 6 -8 4 6
-1 11 4 28 11 37 17 20 9 33 -22 39 -23 5 -24 3 -19 -26z"/>
<path d="M2338 1973 c6 -2 18 -2 25 0 6 3 1 5 -13 5 -14 0 -19 -2 -12 -5z"/>
<path d="M1350 1961 c0 -10 30 -24 37 -17 3 3 2 9 -2 15 -8 13 -35 15 -35 2z"/>
<path d="M1478 1943 c-2 -10 1 -26 6 -35 8 -14 6 -21 -9 -32 -11 -9 -15 -16
-9 -16 6 0 17 7 24 15 7 9 20 13 28 10 10 -4 12 0 8 11 -3 8 -6 17 -6 20 0 2
-7 1 -16 -3 -12 -4 -14 0 -8 21 4 15 2 26 -4 26 -6 0 -12 -8 -14 -17z"/>
<path d="M3952 1924 c2 -11 11 -20 22 -22 13 -3 17 1 14 14 -2 11 -11 20 -22
22 -13 3 -17 -1 -14 -14z"/>
<path d="M1307 1913 c-12 -11 -8 -20 11 -27 9 -3 27 -10 40 -16 14 -6 22 -6
22 1 0 5 -8 12 -17 16 -10 3 -25 12 -34 20 -9 7 -19 10 -22 6z"/>
<path d="M2320 1889 c0 -5 5 -7 10 -4 6 3 10 8 10 11 0 2 -4 4 -10 4 -5 0 -10
-5 -10 -11z"/>
<path d="M3940 1869 c0 -5 5 -7 10 -4 6 3 10 8 10 11 0 2 -4 4 -10 4 -5 0 -10
-5 -10 -11z"/>
<path d="M3 1781 c1 -19 6 -26 13 -21 5 5 20 7 32 3 16 -4 22 -1 22 10 0 18
-5 22 -42 31 -25 6 -27 4 -25 -23z"/>
<path d="M2580 1759 c0 -5 5 -7 10 -4 6 3 10 8 10 11 0 2 -4 4 -10 4 -5 0 -10
-5 -10 -11z"/>
<path d="M2550 1751 c0 -6 4 -13 10 -16 6 -3 7 1 4 9 -7 18 -14 21 -14 7z"/>
<path d="M2580 1730 c0 -5 4 -10 9 -10 6 0 13 5 16 10 3 6 -1 10 -9 10 -9 0
-16 -4 -16 -10z"/>
<path d="M230 1650 c0 -11 -6 -20 -14 -20 -28 0 -26 -18 4 -51 34 -35 44 -32
53 17 5 25 1 36 -19 53 -24 20 -24 20 -24 1z"/>
<path d="M312 1650 c-14 -24 -16 -54 -2 -45 6 3 10 2 10 -3 0 -6 -7 -12 -15
-16 -16 -6 -21 -36 -5 -36 11 0 29 31 46 77 9 26 9 33 -3 37 -8 4 -15 6 -16 6
-1 0 -8 -9 -15 -20z"/>
<path d="M2930 1626 c0 -16 5 -26 15 -26 8 0 15 6 15 14 0 7 -7 19 -15 26 -13
11 -15 8 -15 -14z"/>
<path d="M10 1600 c0 -5 5 -10 10 -10 6 0 10 5 10 10 0 6 -4 10 -10 10 -5 0
-10 -4 -10 -10z"/>
<path d="M89 1558 c-1 -13 -2 -33 -3 -45 0 -13 3 -23 8 -23 12 0 18 78 6 85
-6 3 -11 -4 -11 -17z"/>
<path d="M1 1499 c1 -46 4 -65 8 -49 4 15 15 26 29 28 19 3 21 6 10 25 -6 12
-19 33 -29 46 -19 24 -19 24 -18 -50z"/>
<path d="M2845 1560 c-3 -5 3 -10 14 -10 12 0 21 5 21 10 0 6 -6 10 -14 10 -8
0 -18 -4 -21 -10z"/>
<path d="M2918 1523 c7 -3 16 -2 19 1 4 3 -2 6 -13 5 -11 0 -14 -3 -6 -6z"/>
<path d="M3250 1520 c0 -5 5 -10 10 -10 6 0 10 5 10 10 0 6 -4 10 -10 10 -5 0
-10 -4 -10 -10z"/>
<path d="M2960 1510 c0 -5 7 -10 16 -10 8 0 12 5 9 10 -3 6 -10 10 -16 10 -5
0 -9 -4 -9 -10z"/>
<path d="M121 1484 c0 -11 3 -14 6 -6 3 7 2 16 -1 19 -3 4 -6 -2 -5 -13z"/>
<path d="M2955 1450 c-3 -6 1 -7 9 -4 18 7 21 14 7 14 -6 0 -13 -4 -16 -10z"/>
<path d="M3263 1453 c4 -3 2 -12 -4 -20 -9 -10 -8 -13 5 -13 10 0 14 -4 11
-10 -3 -6 1 -7 9 -4 9 3 16 9 16 13 -1 10 -27 41 -35 41 -5 0 -5 -3 -2 -7z"/>
<path d="M2906 1438 c5 -8 2 -9 -10 -5 -11 4 -15 3 -11 -4 4 -6 14 -8 22 -5 9
4 22 1 29 -5 10 -8 14 -8 14 -1 0 6 -9 16 -19 22 -26 13 -34 13 -25 -2z"/>
<path d="M2846 1427 c3 -10 9 -15 12 -12 3 3 0 11 -7 18 -10 9 -11 8 -5 -6z"/>
<path d="M2966 1424 c-5 -12 1 -26 17 -42 l25 -24 4 36 c2 20 1 36 -3 36 -4 0
-14 3 -22 6 -8 3 -17 -2 -21 -12z"/>
<path d="M3310 1400 c0 -5 5 -10 10 -10 6 0 10 5 10 10 0 6 -4 10 -10 10 -5 0
-10 -4 -10 -10z"/>
<path d="M2851 1391 c-8 -5 -10 -14 -6 -21 6 -9 10 -8 17 4 12 21 7 28 -11 17z"/>
<path d="M2870 1359 c0 -6 -9 -8 -20 -4 -12 4 -20 2 -20 -5 0 -16 31 -60 43
-60 5 0 15 -7 22 -17 8 -11 14 -13 19 -4 4 6 0 14 -8 17 -9 3 -16 12 -16 20 0
8 -5 14 -10 14 -6 0 -8 11 -4 25 3 14 3 25 0 25 -3 0 -6 -5 -6 -11z"/>
<path d="M2960 1366 c0 -3 9 -10 20 -16 11 -6 20 -8 20 -6 0 3 -9 10 -20 16
-11 6 -20 8 -20 6z"/>
<path d="M3110 1334 c0 -8 5 -12 10 -9 6 4 8 11 5 16 -9 14 -15 11 -15 -7z"/>
<path d="M2568 1323 c7 -3 16 -2 19 1 4 3 -2 6 -13 5 -11 0 -14 -3 -6 -6z"/>
<path d="M2930 1286 c0 -2 7 -7 16 -10 8 -3 12 -2 9 4 -6 10 -25 14 -25 6z"/>
<path d="M2665 1270 c3 -5 8 -10 11 -10 2 0 4 5 4 10 0 6 -5 10 -11 10 -5 0
-7 -4 -4 -10z"/>
<path d="M2530 1210 c0 -5 10 -10 23 -10 18 0 19 2 7 10 -19 13 -30 13 -30 0z"/>
<path d="M2560 1153 c0 -5 5 -15 10 -23 8 -12 10 -11 10 8 0 12 -4 22 -10 22
-5 0 -10 -3 -10 -7z"/>
<path d="M2667 1023 c-13 -13 -7 -32 8 -27 8 4 15 12 15 20 0 15 -12 19 -23 7z"/>
<path d="M2687 994 c-3 -3 -3 -12 0 -20 4 -11 7 -11 19 1 8 7 14 16 14 19 0 8
-25 8 -33 0z"/>
<path d="M3186 947 c3 -10 9 -15 12 -12 3 3 0 11 -7 18 -10 9 -11 8 -5 -6z"/>
<path d="M2900 930 c-8 -5 -12 -11 -10 -14 3 -2 14 2 24 10 22 15 10 19 -14 4z"/>
<path d="M2705 910 c3 -6 27 -10 52 -10 58 0 53 7 -10 14 -30 4 -46 2 -42 -4z"/>
<path d="M3095 900 c3 -5 8 -10 11 -10 2 0 4 5 4 10 0 6 -5 10 -11 10 -5 0 -7
-4 -4 -10z"/>
<path d="M2850 880 c0 -14 49 -32 69 -27 12 4 12 5 -3 6 -12 1 -16 6 -12 16 4
11 -2 15 -24 15 -17 0 -30 -5 -30 -10z"/>
<path d="M2950 859 c0 -5 5 -7 10 -4 6 3 10 8 10 11 0 2 -4 4 -10 4 -5 0 -10
-5 -10 -11z"/>
</g>
</svg>
